<svg width="327" height="234" viewBox="0 0 327 234" fill="none" xmlns="http://www.w3.org/2000/svg">
<rect x="94.6926" width="137.615" height="120" rx="60" fill="#EBEEF0"/>
<ellipse cx="82.0779" cy="17" rx="2.29358" ry="2" fill="#FBBE4A"/>
<ellipse cx="230.014" cy="11" rx="2.29358" ry="2" fill="#3EBD93"/>
<ellipse cx="243.202" cy="20.5" rx="4.01376" ry="3.5" fill="#EBEEF0"/>
<ellipse cx="80.9312" cy="109" rx="2.29358" ry="2" fill="#EF4E4E"/>
<g clip-path="url(#clip0_2043_4657)">
<rect x="122.216" y="25" width="82.5688" height="120" rx="8" fill="white" stroke="#0E33F3" stroke-width="4"/>
<line x1="0.5" y1="-0.5" x2="64.9268" y2="-0.5" transform="matrix(0.753696 0.657223 -0.753696 0.657223 135.977 60)" stroke="#EBEEF0" stroke-linecap="round"/>
<line x1="0.5" y1="-0.5" x2="11.6724" y2="-0.5" transform="matrix(0.753696 0.657223 -0.753696 0.657223 149.739 110)" stroke="#EBEEF0" stroke-linecap="round"/>
<line x1="0.5" y1="-0.5" x2="17.7586" y2="-0.5" transform="matrix(0.753696 0.657223 -0.753696 0.657223 162.353 51)" stroke="#EBEEF0" stroke-linecap="round"/>
</g>
<g filter="url(#filter0_d_2043_4657)">
<rect x="154.44" y="59" width="99.656" height="44" rx="8.8" fill="white"/>
</g>
<ellipse cx="175.885" cy="81" rx="12.6147" ry="11" fill="#0E33F3"/>
<path d="M170.734 80.9998L174.413 84.2082L181.772 77.7915" stroke="white" stroke-width="1.67313" stroke-linecap="round" stroke-linejoin="round"/>
<rect x="196.068" y="67.8" width="25.9112" height="2.29565" rx="0.836566" fill="#FAFAFB"/>
<rect x="196.068" y="72.3918" width="47.9358" height="2.29565" rx="0.836566" fill="#FAFAFB"/>
<rect x="196.068" y="78.1301" width="47.9358" height="16.0695" rx="1.67313" fill="#FAFAFB"/>
<path d="M204.456 89.6079L204.569 86.9775L201.931 88.3883L201.25 87.384L204.03 86.1644L201.25 84.9449L201.931 83.9405L204.569 85.3514L204.456 82.7209H205.818L205.704 85.3514L208.343 83.9405L209.023 84.9449L206.243 86.1644L209.023 87.384L208.343 88.3883L205.704 86.9775L205.818 89.6079H204.456Z" fill="#0F1B26"/>
<path d="M214.821 89.6079L214.934 86.9775L212.296 88.3883L211.615 87.384L214.395 86.1644L211.615 84.9449L212.296 83.9405L214.934 85.3514L214.821 82.7209H216.182L216.069 85.3514L218.707 83.9405L219.388 84.9449L216.608 86.1644L219.388 87.384L218.707 88.3883L216.069 86.9775L216.182 89.6079H214.821Z" fill="#0F1B26"/>
<path d="M225.185 89.6079L225.299 86.9775L222.66 88.3883L221.98 87.384L224.76 86.1644L221.98 84.9449L222.66 83.9405L225.299 85.3514L225.185 82.7209H226.547L226.434 85.3514L229.072 83.9405L229.753 84.9449L226.973 86.1644L229.753 87.384L229.072 88.3883L226.434 86.9775L226.547 89.6079H225.185Z" fill="#0F1B26"/>
<path d="M235.549 89.6079L235.663 86.9775L233.024 88.3883L232.343 87.384L235.124 86.1644L232.343 84.9449L233.024 83.9405L235.663 85.3514L235.549 82.7209H236.911L236.797 85.3514L239.436 83.9405L240.117 84.9449L237.336 86.1644L240.117 87.384L239.436 88.3883L236.797 86.9775L236.911 89.6079H235.549Z" fill="#0F1B26"/>
<path d="M54.7457 174V156.545H60.9673C62.3253 156.545 63.4503 156.793 64.3423 157.287C65.2344 157.781 65.902 158.457 66.3452 159.315C66.7884 160.168 67.0099 161.128 67.0099 162.196C67.0099 163.27 66.7855 164.236 66.3366 165.094C65.8935 165.946 65.223 166.622 64.3253 167.122C63.4332 167.616 62.3111 167.864 60.9588 167.864H56.6804V165.631H60.7202C61.5781 165.631 62.2741 165.483 62.8082 165.188C63.3423 164.886 63.7344 164.477 63.9844 163.96C64.2344 163.443 64.3594 162.855 64.3594 162.196C64.3594 161.537 64.2344 160.952 63.9844 160.44C63.7344 159.929 63.3395 159.528 62.7997 159.239C62.2656 158.949 61.5611 158.804 60.6861 158.804H57.3793V174H54.7457ZM73.5852 174.29C72.7557 174.29 72.0057 174.136 71.3352 173.83C70.6648 173.517 70.1335 173.065 69.7415 172.474C69.3551 171.884 69.1619 171.159 69.1619 170.301C69.1619 169.562 69.304 168.955 69.5881 168.477C69.8722 168 70.2557 167.622 70.7386 167.344C71.2216 167.065 71.7614 166.855 72.358 166.713C72.9545 166.571 73.5625 166.463 74.1818 166.389C74.9659 166.298 75.6023 166.224 76.0909 166.168C76.5795 166.105 76.9347 166.006 77.1562 165.869C77.3778 165.733 77.4886 165.511 77.4886 165.205V165.145C77.4886 164.401 77.2784 163.824 76.858 163.415C76.4432 163.006 75.8239 162.801 75 162.801C74.142 162.801 73.4659 162.991 72.9716 163.372C72.483 163.747 72.1449 164.165 71.9574 164.625L69.5625 164.08C69.8466 163.284 70.2614 162.642 70.8068 162.153C71.358 161.659 71.9915 161.301 72.7074 161.08C73.4233 160.852 74.1761 160.739 74.9659 160.739C75.4886 160.739 76.0426 160.801 76.6278 160.926C77.2188 161.045 77.7699 161.267 78.2812 161.591C78.7983 161.915 79.2216 162.378 79.5511 162.98C79.8807 163.577 80.0455 164.352 80.0455 165.307V174H77.5568V172.21H77.4545C77.2898 172.54 77.0426 172.864 76.7131 173.182C76.3835 173.5 75.9602 173.764 75.4432 173.974C74.9261 174.185 74.3068 174.29 73.5852 174.29ZM74.1392 172.244C74.8438 172.244 75.446 172.105 75.946 171.827C76.4517 171.548 76.8352 171.185 77.0966 170.736C77.3636 170.281 77.4972 169.795 77.4972 169.278V167.591C77.4063 167.682 77.2301 167.767 76.9688 167.847C76.7131 167.92 76.4205 167.986 76.0909 168.043C75.7614 168.094 75.4403 168.142 75.1278 168.188C74.8153 168.227 74.554 168.261 74.3438 168.29C73.8494 168.352 73.3977 168.457 72.9886 168.605C72.5852 168.753 72.2614 168.966 72.017 169.244C71.7784 169.517 71.6591 169.881 71.6591 170.335C71.6591 170.966 71.892 171.443 72.358 171.767C72.8239 172.085 73.4176 172.244 74.1392 172.244ZM93.2493 164.105L90.9396 164.514C90.843 164.219 90.6896 163.937 90.4794 163.67C90.2749 163.403 89.9964 163.185 89.6442 163.014C89.2919 162.844 88.8516 162.759 88.3232 162.759C87.6016 162.759 86.9993 162.92 86.5163 163.244C86.0334 163.562 85.7919 163.974 85.7919 164.48C85.7919 164.918 85.9538 165.27 86.2777 165.537C86.6016 165.804 87.1243 166.023 87.8459 166.193L89.9254 166.67C91.13 166.949 92.0277 167.378 92.6186 167.957C93.2095 168.537 93.505 169.29 93.505 170.216C93.505 171 93.2777 171.699 92.8232 172.312C92.3743 172.92 91.7464 173.398 90.9396 173.744C90.1385 174.091 89.2095 174.264 88.1527 174.264C86.6868 174.264 85.4908 173.952 84.5646 173.327C83.6385 172.696 83.0703 171.801 82.8601 170.642L85.3232 170.267C85.4766 170.909 85.7919 171.395 86.2692 171.724C86.7464 172.048 87.3686 172.21 88.1357 172.21C88.9709 172.21 89.6385 172.037 90.1385 171.69C90.6385 171.338 90.8885 170.909 90.8885 170.403C90.8885 169.994 90.7351 169.651 90.4283 169.372C90.1271 169.094 89.6641 168.884 89.0391 168.741L86.8232 168.256C85.6016 167.977 84.6982 167.534 84.1129 166.926C83.5334 166.318 83.2436 165.548 83.2436 164.616C83.2436 163.844 83.4595 163.168 83.8913 162.588C84.3232 162.009 84.9197 161.557 85.6811 161.233C86.4425 160.903 87.3146 160.739 88.2976 160.739C89.7124 160.739 90.826 161.045 91.6385 161.659C92.451 162.267 92.9879 163.082 93.2493 164.105ZM106.116 164.105L103.807 164.514C103.71 164.219 103.557 163.937 103.347 163.67C103.142 163.403 102.864 163.185 102.511 163.014C102.159 162.844 101.719 162.759 101.19 162.759C100.469 162.759 99.8665 162.92 99.3835 163.244C98.9006 163.562 98.6591 163.974 98.6591 164.48C98.6591 164.918 98.821 165.27 99.1449 165.537C99.4688 165.804 99.9915 166.023 100.713 166.193L102.793 166.67C103.997 166.949 104.895 167.378 105.486 167.957C106.077 168.537 106.372 169.29 106.372 170.216C106.372 171 106.145 171.699 105.69 172.312C105.241 172.92 104.614 173.398 103.807 173.744C103.006 174.091 102.077 174.264 101.02 174.264C99.554 174.264 98.358 173.952 97.4318 173.327C96.5057 172.696 95.9375 171.801 95.7273 170.642L98.1903 170.267C98.3438 170.909 98.6591 171.395 99.1364 171.724C99.6136 172.048 100.236 172.21 101.003 172.21C101.838 172.21 102.506 172.037 103.006 171.69C103.506 171.338 103.756 170.909 103.756 170.403C103.756 169.994 103.602 169.651 103.295 169.372C102.994 169.094 102.531 168.884 101.906 168.741L99.6903 168.256C98.4688 167.977 97.5653 167.534 96.9801 166.926C96.4006 166.318 96.1108 165.548 96.1108 164.616C96.1108 163.844 96.3267 163.168 96.7585 162.588C97.1903 162.009 97.7869 161.557 98.5483 161.233C99.3097 160.903 100.182 160.739 101.165 160.739C102.58 160.739 103.693 161.045 104.506 161.659C105.318 162.267 105.855 163.082 106.116 164.105ZM112.012 174L108.16 160.909H110.793L113.359 170.523H113.487L116.06 160.909H118.694L121.251 170.48H121.379L123.927 160.909H126.56L122.717 174H120.117L117.458 164.548H117.262L114.603 174H112.012ZM134.094 174.264C132.867 174.264 131.796 173.983 130.881 173.42C129.967 172.858 129.256 172.071 128.751 171.06C128.245 170.048 127.992 168.866 127.992 167.514C127.992 166.156 128.245 164.969 128.751 163.952C129.256 162.935 129.967 162.145 130.881 161.582C131.796 161.02 132.867 160.739 134.094 160.739C135.322 160.739 136.393 161.02 137.308 161.582C138.222 162.145 138.933 162.935 139.438 163.952C139.944 164.969 140.197 166.156 140.197 167.514C140.197 168.866 139.944 170.048 139.438 171.06C138.933 172.071 138.222 172.858 137.308 173.42C136.393 173.983 135.322 174.264 134.094 174.264ZM134.103 172.125C134.898 172.125 135.558 171.915 136.08 171.494C136.603 171.074 136.989 170.514 137.239 169.815C137.495 169.116 137.623 168.347 137.623 167.506C137.623 166.67 137.495 165.903 137.239 165.205C136.989 164.5 136.603 163.935 136.08 163.509C135.558 163.082 134.898 162.869 134.103 162.869C133.302 162.869 132.637 163.082 132.109 163.509C131.586 163.935 131.197 164.5 130.941 165.205C130.691 165.903 130.566 166.67 130.566 167.506C130.566 168.347 130.691 169.116 130.941 169.815C131.197 170.514 131.586 171.074 132.109 171.494C132.637 171.915 133.302 172.125 134.103 172.125ZM143.041 174V160.909H145.504V162.989H145.641C145.879 162.284 146.3 161.73 146.902 161.327C147.51 160.918 148.197 160.713 148.964 160.713C149.124 160.713 149.311 160.719 149.527 160.73C149.749 160.741 149.922 160.756 150.047 160.773V163.21C149.945 163.182 149.763 163.151 149.501 163.116C149.24 163.077 148.979 163.057 148.717 163.057C148.115 163.057 147.578 163.185 147.107 163.44C146.641 163.69 146.271 164.04 145.999 164.489C145.726 164.932 145.589 165.437 145.589 166.006V174H143.041ZM156.684 174.256C155.627 174.256 154.684 173.986 153.854 173.446C153.031 172.901 152.383 172.125 151.911 171.119C151.445 170.108 151.212 168.895 151.212 167.48C151.212 166.065 151.448 164.855 151.92 163.849C152.397 162.844 153.05 162.074 153.88 161.54C154.71 161.006 155.65 160.739 156.701 160.739C157.513 160.739 158.167 160.875 158.661 161.148C159.161 161.415 159.548 161.727 159.82 162.085C160.099 162.443 160.315 162.759 160.468 163.031H160.621V156.545H163.17V174H160.681V171.963H160.468C160.315 172.241 160.093 172.56 159.803 172.918C159.519 173.276 159.127 173.588 158.627 173.855C158.127 174.122 157.479 174.256 156.684 174.256ZM157.246 172.082C157.979 172.082 158.599 171.889 159.104 171.503C159.616 171.111 160.002 170.568 160.263 169.875C160.531 169.182 160.664 168.375 160.664 167.455C160.664 166.545 160.533 165.75 160.272 165.068C160.011 164.386 159.627 163.855 159.121 163.474C158.616 163.094 157.991 162.903 157.246 162.903C156.479 162.903 155.84 163.102 155.329 163.5C154.817 163.898 154.431 164.44 154.17 165.128C153.914 165.815 153.786 166.591 153.786 167.455C153.786 168.33 153.917 169.116 154.178 169.815C154.44 170.514 154.826 171.068 155.337 171.477C155.854 171.881 156.491 172.082 157.246 172.082ZM181.451 168.571V160.909H184.008V174H181.502V171.733H181.366C181.065 172.432 180.582 173.014 179.917 173.48C179.258 173.94 178.437 174.17 177.454 174.17C176.613 174.17 175.869 173.986 175.221 173.616C174.579 173.241 174.073 172.688 173.704 171.955C173.34 171.222 173.158 170.315 173.158 169.236V160.909H175.707V168.929C175.707 169.821 175.954 170.531 176.448 171.06C176.942 171.588 177.585 171.852 178.374 171.852C178.852 171.852 179.326 171.733 179.798 171.494C180.275 171.256 180.67 170.895 180.982 170.412C181.3 169.929 181.457 169.315 181.451 168.571ZM187.432 178.909V160.909H189.92V163.031H190.134C190.281 162.759 190.494 162.443 190.773 162.085C191.051 161.727 191.438 161.415 191.932 161.148C192.426 160.875 193.08 160.739 193.892 160.739C194.949 160.739 195.892 161.006 196.722 161.54C197.551 162.074 198.202 162.844 198.673 163.849C199.151 164.855 199.389 166.065 199.389 167.48C199.389 168.895 199.153 170.108 198.682 171.119C198.21 172.125 197.563 172.901 196.739 173.446C195.915 173.986 194.974 174.256 193.918 174.256C193.122 174.256 192.472 174.122 191.966 173.855C191.466 173.588 191.074 173.276 190.79 172.918C190.506 172.56 190.287 172.241 190.134 171.963H189.98V178.909H187.432ZM189.929 167.455C189.929 168.375 190.063 169.182 190.33 169.875C190.597 170.568 190.983 171.111 191.489 171.503C191.994 171.889 192.614 172.082 193.347 172.082C194.108 172.082 194.744 171.881 195.256 171.477C195.767 171.068 196.153 170.514 196.415 169.815C196.682 169.116 196.815 168.33 196.815 167.455C196.815 166.591 196.685 165.815 196.423 165.128C196.168 164.44 195.781 163.898 195.264 163.5C194.753 163.102 194.114 162.903 193.347 162.903C192.608 162.903 191.983 163.094 191.472 163.474C190.966 163.855 190.582 164.386 190.321 165.068C190.06 165.75 189.929 166.545 189.929 167.455ZM207.145 174.256C206.088 174.256 205.145 173.986 204.315 173.446C203.491 172.901 202.844 172.125 202.372 171.119C201.906 170.108 201.673 168.895 201.673 167.48C201.673 166.065 201.909 164.855 202.381 163.849C202.858 162.844 203.511 162.074 204.341 161.54C205.17 161.006 206.111 160.739 207.162 160.739C207.974 160.739 208.628 160.875 209.122 161.148C209.622 161.415 210.009 161.727 210.281 162.085C210.56 162.443 210.776 162.759 210.929 163.031H211.082V156.545H213.631V174H211.142V171.963H210.929C210.776 172.241 210.554 172.56 210.264 172.918C209.98 173.276 209.588 173.588 209.088 173.855C208.588 174.122 207.94 174.256 207.145 174.256ZM207.707 172.082C208.44 172.082 209.06 171.889 209.565 171.503C210.077 171.111 210.463 170.568 210.724 169.875C210.991 169.182 211.125 168.375 211.125 167.455C211.125 166.545 210.994 165.75 210.733 165.068C210.472 164.386 210.088 163.855 209.582 163.474C209.077 163.094 208.452 162.903 207.707 162.903C206.94 162.903 206.301 163.102 205.79 163.5C205.278 163.898 204.892 164.44 204.631 165.128C204.375 165.815 204.247 166.591 204.247 167.455C204.247 168.33 204.378 169.116 204.639 169.815C204.901 170.514 205.287 171.068 205.798 171.477C206.315 171.881 206.952 172.082 207.707 172.082ZM221.077 174.29C220.248 174.29 219.498 174.136 218.827 173.83C218.157 173.517 217.626 173.065 217.234 172.474C216.847 171.884 216.654 171.159 216.654 170.301C216.654 169.562 216.796 168.955 217.08 168.477C217.364 168 217.748 167.622 218.231 167.344C218.714 167.065 219.254 166.855 219.85 166.713C220.447 166.571 221.055 166.463 221.674 166.389C222.458 166.298 223.094 166.224 223.583 166.168C224.072 166.105 224.427 166.006 224.648 165.869C224.87 165.733 224.981 165.511 224.981 165.205V165.145C224.981 164.401 224.771 163.824 224.35 163.415C223.935 163.006 223.316 162.801 222.492 162.801C221.634 162.801 220.958 162.991 220.464 163.372C219.975 163.747 219.637 164.165 219.45 164.625L217.055 164.08C217.339 163.284 217.754 162.642 218.299 162.153C218.85 161.659 219.484 161.301 220.2 161.08C220.915 160.852 221.668 160.739 222.458 160.739C222.981 160.739 223.535 160.801 224.12 160.926C224.711 161.045 225.262 161.267 225.773 161.591C226.29 161.915 226.714 162.378 227.043 162.98C227.373 163.577 227.538 164.352 227.538 165.307V174H225.049V172.21H224.947C224.782 172.54 224.535 172.864 224.205 173.182C223.876 173.5 223.452 173.764 222.935 173.974C222.418 174.185 221.799 174.29 221.077 174.29ZM221.631 172.244C222.336 172.244 222.938 172.105 223.438 171.827C223.944 171.548 224.327 171.185 224.589 170.736C224.856 170.281 224.989 169.795 224.989 169.278V167.591C224.898 167.682 224.722 167.767 224.461 167.847C224.205 167.92 223.913 167.986 223.583 168.043C223.254 168.094 222.933 168.142 222.62 168.188C222.308 168.227 222.046 168.261 221.836 168.29C221.342 168.352 220.89 168.457 220.481 168.605C220.077 168.753 219.754 168.966 219.509 169.244C219.271 169.517 219.151 169.881 219.151 170.335C219.151 170.966 219.384 171.443 219.85 171.767C220.316 172.085 220.91 172.244 221.631 172.244ZM237.043 160.909V162.955H229.892V160.909H237.043ZM231.81 157.773H234.358V170.156C234.358 170.651 234.432 171.023 234.58 171.273C234.727 171.517 234.918 171.685 235.151 171.776C235.389 171.861 235.648 171.903 235.926 171.903C236.131 171.903 236.31 171.889 236.463 171.861C236.616 171.832 236.736 171.81 236.821 171.793L237.281 173.898C237.134 173.955 236.923 174.011 236.651 174.068C236.378 174.131 236.037 174.165 235.628 174.17C234.957 174.182 234.332 174.062 233.753 173.812C233.173 173.562 232.705 173.176 232.347 172.653C231.989 172.131 231.81 171.474 231.81 170.685V157.773ZM245.363 174.264C244.073 174.264 242.962 173.989 242.031 173.438C241.104 172.881 240.388 172.099 239.883 171.094C239.383 170.082 239.133 168.898 239.133 167.54C239.133 166.199 239.383 165.017 239.883 163.994C240.388 162.972 241.093 162.173 241.996 161.599C242.906 161.026 243.968 160.739 245.184 160.739C245.923 160.739 246.638 160.861 247.332 161.105C248.025 161.349 248.647 161.733 249.198 162.256C249.749 162.778 250.184 163.457 250.502 164.293C250.82 165.122 250.979 166.131 250.979 167.318V168.222H240.573V166.312H248.482C248.482 165.642 248.346 165.048 248.073 164.531C247.8 164.009 247.417 163.597 246.923 163.295C246.434 162.994 245.86 162.844 245.201 162.844C244.485 162.844 243.86 163.02 243.326 163.372C242.798 163.719 242.388 164.173 242.099 164.736C241.815 165.293 241.673 165.898 241.673 166.551V168.043C241.673 168.918 241.826 169.662 242.133 170.276C242.445 170.889 242.88 171.358 243.437 171.682C243.994 172 244.644 172.159 245.388 172.159C245.871 172.159 246.312 172.091 246.71 171.955C247.107 171.812 247.451 171.602 247.741 171.324C248.031 171.045 248.252 170.702 248.406 170.293L250.817 170.727C250.624 171.437 250.278 172.06 249.778 172.594C249.283 173.122 248.661 173.534 247.911 173.83C247.167 174.119 246.317 174.264 245.363 174.264ZM258.707 174.256C257.651 174.256 256.707 173.986 255.878 173.446C255.054 172.901 254.406 172.125 253.935 171.119C253.469 170.108 253.236 168.895 253.236 167.48C253.236 166.065 253.472 164.855 253.943 163.849C254.42 162.844 255.074 162.074 255.903 161.54C256.733 161.006 257.673 160.739 258.724 160.739C259.537 160.739 260.19 160.875 260.685 161.148C261.185 161.415 261.571 161.727 261.844 162.085C262.122 162.443 262.338 162.759 262.491 163.031H262.645V156.545H265.193V174H262.705V171.963H262.491C262.338 172.241 262.116 172.56 261.827 172.918C261.543 173.276 261.151 173.588 260.651 173.855C260.151 174.122 259.503 174.256 258.707 174.256ZM259.27 172.082C260.003 172.082 260.622 171.889 261.128 171.503C261.639 171.111 262.026 170.568 262.287 169.875C262.554 169.182 262.688 168.375 262.688 167.455C262.688 166.545 262.557 165.75 262.295 165.068C262.034 164.386 261.651 163.855 261.145 163.474C260.639 163.094 260.014 162.903 259.27 162.903C258.503 162.903 257.864 163.102 257.352 163.5C256.841 163.898 256.455 164.44 256.193 165.128C255.938 165.815 255.81 166.591 255.81 167.455C255.81 168.33 255.94 169.116 256.202 169.815C256.463 170.514 256.849 171.068 257.361 171.477C257.878 171.881 258.514 172.082 259.27 172.082ZM272.043 156.545L271.822 168.98H269.461L269.239 156.545H272.043ZM270.646 174.162C270.174 174.162 269.771 173.997 269.435 173.668C269.1 173.332 268.935 172.929 268.941 172.457C268.935 171.991 269.1 171.594 269.435 171.264C269.771 170.929 270.174 170.761 270.646 170.761C271.106 170.761 271.504 170.929 271.839 171.264C272.174 171.594 272.344 171.991 272.35 172.457C272.344 172.77 272.262 173.057 272.103 173.318C271.95 173.574 271.745 173.778 271.489 173.932C271.234 174.085 270.952 174.162 270.646 174.162Z" fill="#242D35"/>
<path d="M43.0072 192.364H44.6208L47.8481 197.795H47.9845L51.2118 192.364H52.8254L48.6208 199.205V204H47.2118V199.205L43.0072 192.364ZM57.0971 204.182C56.3092 204.182 55.6179 203.994 55.0232 203.619C54.4323 203.244 53.9702 202.72 53.6369 202.045C53.3073 201.371 53.1426 200.583 53.1426 199.682C53.1426 198.773 53.3073 197.979 53.6369 197.301C53.9702 196.623 54.4323 196.097 55.0232 195.722C55.6179 195.347 56.3092 195.159 57.0971 195.159C57.885 195.159 58.5744 195.347 59.1653 195.722C59.76 196.097 60.2221 196.623 60.5516 197.301C60.885 197.979 61.0516 198.773 61.0516 199.682C61.0516 200.583 60.885 201.371 60.5516 202.045C60.2221 202.72 59.76 203.244 59.1653 203.619C58.5744 203.994 57.885 204.182 57.0971 204.182ZM57.0971 202.977C57.6956 202.977 58.188 202.824 58.5744 202.517C58.9607 202.21 59.2467 201.807 59.4323 201.307C59.6179 200.807 59.7107 200.265 59.7107 199.682C59.7107 199.098 59.6179 198.555 59.4323 198.051C59.2467 197.547 58.9607 197.14 58.5744 196.83C58.188 196.519 57.6956 196.364 57.0971 196.364C56.4986 196.364 56.0062 196.519 55.6198 196.83C55.2335 197.14 54.9475 197.547 54.7619 198.051C54.5763 198.555 54.4835 199.098 54.4835 199.682C54.4835 200.265 54.5763 200.807 54.7619 201.307C54.9475 201.807 55.2335 202.21 55.6198 202.517C56.0062 202.824 56.4986 202.977 57.0971 202.977ZM68.9185 200.432V195.273H70.2594V204H68.9185V202.523H68.8276C68.6231 202.966 68.3049 203.343 67.8731 203.653C67.4412 203.96 66.8958 204.114 66.2367 204.114C65.6912 204.114 65.2064 203.994 64.7822 203.756C64.3579 203.513 64.0246 203.15 63.7822 202.665C63.5397 202.176 63.4185 201.561 63.4185 200.818V195.273H64.7594V200.727C64.7594 201.364 64.9375 201.871 65.2935 202.25C65.6534 202.629 66.1117 202.818 66.6685 202.818C67.0019 202.818 67.3409 202.733 67.6856 202.562C68.034 202.392 68.3257 202.131 68.5606 201.778C68.7992 201.426 68.9185 200.977 68.9185 200.432ZM73.0354 204V195.273H74.3308V196.591H74.4218C74.5808 196.159 74.8687 195.809 75.2854 195.54C75.7021 195.271 76.1718 195.136 76.6945 195.136C76.793 195.136 76.9161 195.138 77.0638 195.142C77.2115 195.146 77.3233 195.152 77.399 195.159V196.523C77.3536 196.511 77.2494 196.494 77.0865 196.472C76.9274 196.445 76.7589 196.432 76.5808 196.432C76.1566 196.432 75.7778 196.521 75.4445 196.699C75.1149 196.873 74.8536 197.116 74.6604 197.426C74.471 197.733 74.3763 198.083 74.3763 198.477V204H73.0354ZM84.1285 207.273V195.273H85.424V196.659H85.5831C85.6815 196.508 85.8179 196.314 85.9922 196.08C86.1702 195.841 86.424 195.629 86.7535 195.443C87.0869 195.254 87.5376 195.159 88.1058 195.159C88.8406 195.159 89.4884 195.343 90.049 195.71C90.6096 196.078 91.0471 196.598 91.3615 197.273C91.6759 197.947 91.8331 198.742 91.8331 199.659C91.8331 200.583 91.6759 201.384 91.3615 202.062C91.0471 202.737 90.6115 203.259 90.0547 203.631C89.4978 203.998 88.8558 204.182 88.1285 204.182C87.5679 204.182 87.119 204.089 86.7819 203.903C86.4448 203.714 86.1853 203.5 86.0035 203.261C85.8217 203.019 85.6815 202.818 85.5831 202.659H85.4694V207.273H84.1285ZM85.4467 199.636C85.4467 200.295 85.5433 200.877 85.7365 201.381C85.9297 201.881 86.2119 202.273 86.5831 202.557C86.9543 202.837 87.4088 202.977 87.9467 202.977C88.5073 202.977 88.9751 202.83 89.3501 202.534C89.7289 202.235 90.013 201.833 90.2024 201.33C90.3956 200.822 90.4922 200.258 90.4922 199.636C90.4922 199.023 90.3975 198.47 90.2081 197.977C90.0225 197.481 89.7403 197.089 89.3615 196.801C88.9865 196.509 88.5149 196.364 87.9467 196.364C87.4012 196.364 86.9429 196.502 86.5717 196.778C86.2005 197.051 85.9202 197.434 85.7308 197.926C85.5414 198.415 85.4467 198.985 85.4467 199.636ZM96.7667 204.205C96.2137 204.205 95.7118 204.1 95.261 203.892C94.8103 203.68 94.4523 203.375 94.1872 202.977C93.922 202.576 93.7894 202.091 93.7894 201.523C93.7894 201.023 93.8879 200.617 94.0849 200.307C94.2819 199.992 94.5451 199.746 94.8747 199.568C95.2042 199.39 95.5678 199.258 95.9656 199.17C96.3671 199.08 96.7705 199.008 97.1758 198.955C97.7061 198.886 98.136 198.835 98.4656 198.801C98.7989 198.763 99.0413 198.701 99.1928 198.614C99.3481 198.527 99.4258 198.375 99.4258 198.159V198.114C99.4258 197.553 99.2724 197.117 98.9656 196.807C98.6625 196.496 98.2023 196.341 97.5849 196.341C96.9447 196.341 96.4428 196.481 96.0792 196.761C95.7156 197.042 95.4599 197.341 95.3122 197.659L94.0394 197.205C94.2667 196.674 94.5697 196.261 94.9485 195.966C95.3311 195.667 95.7478 195.458 96.1985 195.341C96.6531 195.22 97.1 195.159 97.5394 195.159C97.8197 195.159 98.1417 195.193 98.5053 195.261C98.8728 195.326 99.2269 195.46 99.5678 195.665C99.9125 195.869 100.199 196.178 100.426 196.591C100.653 197.004 100.767 197.557 100.767 198.25V204H99.4258V202.818H99.3576C99.2667 203.008 99.1152 203.21 98.9031 203.426C98.6909 203.642 98.4087 203.826 98.0565 203.977C97.7042 204.129 97.2743 204.205 96.7667 204.205ZM96.9712 203C97.5015 203 97.9485 202.896 98.3122 202.688C98.6796 202.479 98.9561 202.21 99.1417 201.881C99.3311 201.551 99.4258 201.205 99.4258 200.841V199.614C99.369 199.682 99.244 199.744 99.0508 199.801C98.8614 199.854 98.6417 199.902 98.3917 199.943C98.1455 199.981 97.905 200.015 97.6701 200.045C97.439 200.072 97.2515 200.095 97.1076 200.114C96.7591 200.159 96.4334 200.233 96.1303 200.335C95.8311 200.434 95.5887 200.583 95.4031 200.784C95.2212 200.981 95.1303 201.25 95.1303 201.591C95.1303 202.057 95.3027 202.409 95.6474 202.648C95.9959 202.883 96.4372 203 96.9712 203ZM109.716 197.227L108.511 197.568C108.436 197.367 108.324 197.172 108.176 196.983C108.032 196.79 107.835 196.631 107.585 196.506C107.335 196.381 107.015 196.318 106.625 196.318C106.091 196.318 105.646 196.441 105.29 196.688C104.938 196.93 104.761 197.239 104.761 197.614C104.761 197.947 104.883 198.21 105.125 198.403C105.367 198.597 105.746 198.758 106.261 198.886L107.557 199.205C108.337 199.394 108.919 199.684 109.301 200.074C109.684 200.46 109.875 200.958 109.875 201.568C109.875 202.068 109.731 202.515 109.443 202.909C109.159 203.303 108.761 203.614 108.25 203.841C107.739 204.068 107.144 204.182 106.466 204.182C105.576 204.182 104.839 203.989 104.256 203.602C103.672 203.216 103.303 202.652 103.148 201.909L104.421 201.591C104.542 202.061 104.771 202.413 105.108 202.648C105.449 202.883 105.894 203 106.443 203C107.068 203 107.564 202.867 107.932 202.602C108.303 202.333 108.489 202.011 108.489 201.636C108.489 201.333 108.383 201.08 108.171 200.875C107.958 200.667 107.633 200.511 107.193 200.409L105.739 200.068C104.939 199.879 104.352 199.585 103.977 199.188C103.606 198.786 103.421 198.284 103.421 197.682C103.421 197.189 103.559 196.754 103.835 196.375C104.116 195.996 104.496 195.699 104.977 195.483C105.462 195.267 106.011 195.159 106.625 195.159C107.489 195.159 108.167 195.348 108.659 195.727C109.155 196.106 109.508 196.606 109.716 197.227ZM118.395 197.227L117.191 197.568C117.115 197.367 117.003 197.172 116.856 196.983C116.712 196.79 116.515 196.631 116.265 196.506C116.015 196.381 115.695 196.318 115.304 196.318C114.77 196.318 114.325 196.441 113.969 196.688C113.617 196.93 113.441 197.239 113.441 197.614C113.441 197.947 113.562 198.21 113.804 198.403C114.047 198.597 114.426 198.758 114.941 198.886L116.236 199.205C117.017 199.394 117.598 199.684 117.981 200.074C118.363 200.46 118.554 200.958 118.554 201.568C118.554 202.068 118.41 202.515 118.123 202.909C117.839 203.303 117.441 203.614 116.929 203.841C116.418 204.068 115.823 204.182 115.145 204.182C114.255 204.182 113.518 203.989 112.935 203.602C112.352 203.216 111.982 202.652 111.827 201.909L113.1 201.591C113.221 202.061 113.45 202.413 113.787 202.648C114.128 202.883 114.573 203 115.123 203C115.748 203 116.244 202.867 116.611 202.602C116.982 202.333 117.168 202.011 117.168 201.636C117.168 201.333 117.062 201.08 116.85 200.875C116.638 200.667 116.312 200.511 115.873 200.409L114.418 200.068C113.619 199.879 113.032 199.585 112.657 199.188C112.285 198.786 112.1 198.284 112.1 197.682C112.1 197.189 112.238 196.754 112.515 196.375C112.795 195.996 113.176 195.699 113.657 195.483C114.142 195.267 114.691 195.159 115.304 195.159C116.168 195.159 116.846 195.348 117.339 195.727C117.835 196.106 118.187 196.606 118.395 197.227ZM122.87 204L120.211 195.273H121.62L123.507 201.955H123.597L125.461 195.273H126.893L128.734 201.932H128.825L130.711 195.273H132.12L129.461 204H128.143L126.234 197.295H126.097L124.188 204H122.87ZM137.461 204.182C136.674 204.182 135.982 203.994 135.388 203.619C134.797 203.244 134.335 202.72 134.001 202.045C133.672 201.371 133.507 200.583 133.507 199.682C133.507 198.773 133.672 197.979 134.001 197.301C134.335 196.623 134.797 196.097 135.388 195.722C135.982 195.347 136.674 195.159 137.461 195.159C138.249 195.159 138.939 195.347 139.53 195.722C140.124 196.097 140.586 196.623 140.916 197.301C141.249 197.979 141.416 198.773 141.416 199.682C141.416 200.583 141.249 201.371 140.916 202.045C140.586 202.72 140.124 203.244 139.53 203.619C138.939 203.994 138.249 204.182 137.461 204.182ZM137.461 202.977C138.06 202.977 138.552 202.824 138.939 202.517C139.325 202.21 139.611 201.807 139.797 201.307C139.982 200.807 140.075 200.265 140.075 199.682C140.075 199.098 139.982 198.555 139.797 198.051C139.611 197.547 139.325 197.14 138.939 196.83C138.552 196.519 138.06 196.364 137.461 196.364C136.863 196.364 136.371 196.519 135.984 196.83C135.598 197.14 135.312 197.547 135.126 198.051C134.941 198.555 134.848 199.098 134.848 199.682C134.848 200.265 134.941 200.807 135.126 201.307C135.312 201.807 135.598 202.21 135.984 202.517C136.371 202.824 136.863 202.977 137.461 202.977ZM143.783 204V195.273H145.078V196.591H145.169C145.328 196.159 145.616 195.809 146.033 195.54C146.45 195.271 146.919 195.136 147.442 195.136C147.54 195.136 147.664 195.138 147.811 195.142C147.959 195.146 148.071 195.152 148.147 195.159V196.523C148.101 196.511 147.997 196.494 147.834 196.472C147.675 196.445 147.506 196.432 147.328 196.432C146.904 196.432 146.525 196.521 146.192 196.699C145.862 196.873 145.601 197.116 145.408 197.426C145.218 197.733 145.124 198.083 145.124 198.477V204H143.783ZM153.086 204.182C152.359 204.182 151.717 203.998 151.16 203.631C150.603 203.259 150.167 202.737 149.853 202.062C149.538 201.384 149.381 200.583 149.381 199.659C149.381 198.742 149.538 197.947 149.853 197.273C150.167 196.598 150.605 196.078 151.165 195.71C151.726 195.343 152.374 195.159 153.109 195.159C153.677 195.159 154.126 195.254 154.455 195.443C154.788 195.629 155.042 195.841 155.217 196.08C155.395 196.314 155.533 196.508 155.631 196.659H155.745V192.364H157.086V204H155.79V202.659H155.631C155.533 202.818 155.393 203.019 155.211 203.261C155.029 203.5 154.77 203.714 154.432 203.903C154.095 204.089 153.646 204.182 153.086 204.182ZM153.268 202.977C153.806 202.977 154.26 202.837 154.631 202.557C155.003 202.273 155.285 201.881 155.478 201.381C155.671 200.877 155.768 200.295 155.768 199.636C155.768 198.985 155.673 198.415 155.484 197.926C155.294 197.434 155.014 197.051 154.643 196.778C154.271 196.502 153.813 196.364 153.268 196.364C152.699 196.364 152.226 196.509 151.847 196.801C151.472 197.089 151.19 197.481 151.001 197.977C150.815 198.47 150.722 199.023 150.722 199.636C150.722 200.258 150.817 200.822 151.006 201.33C151.199 201.833 151.484 202.235 151.859 202.534C152.237 202.83 152.707 202.977 153.268 202.977ZM166.209 198.75V204H164.868V192.364H166.209V196.636H166.322C166.527 196.186 166.834 195.828 167.243 195.562C167.656 195.294 168.205 195.159 168.891 195.159C169.485 195.159 170.006 195.278 170.453 195.517C170.9 195.752 171.247 196.114 171.493 196.602C171.743 197.087 171.868 197.705 171.868 198.455V204H170.527V198.545C170.527 197.852 170.347 197.316 169.987 196.938C169.631 196.555 169.137 196.364 168.504 196.364C168.065 196.364 167.671 196.456 167.322 196.642C166.978 196.828 166.705 197.098 166.504 197.455C166.307 197.811 166.209 198.242 166.209 198.75ZM177.209 204.205C176.656 204.205 176.154 204.1 175.704 203.892C175.253 203.68 174.895 203.375 174.63 202.977C174.365 202.576 174.232 202.091 174.232 201.523C174.232 201.023 174.33 200.617 174.527 200.307C174.724 199.992 174.988 199.746 175.317 199.568C175.647 199.39 176.01 199.258 176.408 199.17C176.81 199.08 177.213 199.008 177.618 198.955C178.149 198.886 178.579 198.835 178.908 198.801C179.241 198.763 179.484 198.701 179.635 198.614C179.791 198.527 179.868 198.375 179.868 198.159V198.114C179.868 197.553 179.715 197.117 179.408 196.807C179.105 196.496 178.645 196.341 178.027 196.341C177.387 196.341 176.885 196.481 176.522 196.761C176.158 197.042 175.902 197.341 175.755 197.659L174.482 197.205C174.709 196.674 175.012 196.261 175.391 195.966C175.774 195.667 176.19 195.458 176.641 195.341C177.096 195.22 177.543 195.159 177.982 195.159C178.262 195.159 178.584 195.193 178.948 195.261C179.315 195.326 179.669 195.46 180.01 195.665C180.355 195.869 180.641 196.178 180.868 196.591C181.096 197.004 181.209 197.557 181.209 198.25V204H179.868V202.818H179.8C179.709 203.008 179.558 203.21 179.346 203.426C179.133 203.642 178.851 203.826 178.499 203.977C178.147 204.129 177.717 204.205 177.209 204.205ZM177.414 203C177.944 203 178.391 202.896 178.755 202.688C179.122 202.479 179.399 202.21 179.584 201.881C179.774 201.551 179.868 201.205 179.868 200.841V199.614C179.811 199.682 179.686 199.744 179.493 199.801C179.304 199.854 179.084 199.902 178.834 199.943C178.588 199.981 178.347 200.015 178.113 200.045C177.882 200.072 177.694 200.095 177.55 200.114C177.202 200.159 176.876 200.233 176.573 200.335C176.274 200.434 176.031 200.583 175.846 200.784C175.664 200.981 175.573 201.25 175.573 201.591C175.573 202.057 175.745 202.409 176.09 202.648C176.438 202.883 176.88 203 177.414 203ZM190.158 197.227L188.954 197.568C188.878 197.367 188.766 197.172 188.619 196.983C188.475 196.79 188.278 196.631 188.028 196.506C187.778 196.381 187.458 196.318 187.068 196.318C186.533 196.318 186.088 196.441 185.732 196.688C185.38 196.93 185.204 197.239 185.204 197.614C185.204 197.947 185.325 198.21 185.568 198.403C185.81 198.597 186.189 198.758 186.704 198.886L187.999 199.205C188.78 199.394 189.361 199.684 189.744 200.074C190.126 200.46 190.318 200.958 190.318 201.568C190.318 202.068 190.174 202.515 189.886 202.909C189.602 203.303 189.204 203.614 188.693 203.841C188.181 204.068 187.586 204.182 186.908 204.182C186.018 204.182 185.282 203.989 184.698 203.602C184.115 203.216 183.746 202.652 183.59 201.909L184.863 201.591C184.984 202.061 185.213 202.413 185.55 202.648C185.891 202.883 186.336 203 186.886 203C187.511 203 188.007 202.867 188.374 202.602C188.746 202.333 188.931 202.011 188.931 201.636C188.931 201.333 188.825 201.08 188.613 200.875C188.401 200.667 188.075 200.511 187.636 200.409L186.181 200.068C185.382 199.879 184.795 199.585 184.42 199.188C184.049 198.786 183.863 198.284 183.863 197.682C183.863 197.189 184.001 196.754 184.278 196.375C184.558 195.996 184.939 195.699 185.42 195.483C185.905 195.267 186.454 195.159 187.068 195.159C187.931 195.159 188.609 195.348 189.102 195.727C189.598 196.106 189.95 196.606 190.158 197.227ZM197.658 204V192.364H198.999V196.659H199.112C199.211 196.508 199.347 196.314 199.521 196.08C199.7 195.841 199.953 195.629 200.283 195.443C200.616 195.254 201.067 195.159 201.635 195.159C202.37 195.159 203.018 195.343 203.578 195.71C204.139 196.078 204.576 196.598 204.891 197.273C205.205 197.947 205.362 198.742 205.362 199.659C205.362 200.583 205.205 201.384 204.891 202.062C204.576 202.737 204.141 203.259 203.584 203.631C203.027 203.998 202.385 204.182 201.658 204.182C201.097 204.182 200.648 204.089 200.311 203.903C199.974 203.714 199.715 203.5 199.533 203.261C199.351 203.019 199.211 202.818 199.112 202.659H198.953V204H197.658ZM198.976 199.636C198.976 200.295 199.073 200.877 199.266 201.381C199.459 201.881 199.741 202.273 200.112 202.557C200.484 202.837 200.938 202.977 201.476 202.977C202.037 202.977 202.504 202.83 202.879 202.534C203.258 202.235 203.542 201.833 203.732 201.33C203.925 200.822 204.021 200.258 204.021 199.636C204.021 199.023 203.927 198.47 203.737 197.977C203.552 197.481 203.27 197.089 202.891 196.801C202.516 196.509 202.044 196.364 201.476 196.364C200.931 196.364 200.472 196.502 200.101 196.778C199.73 197.051 199.45 197.434 199.26 197.926C199.071 198.415 198.976 198.985 198.976 199.636ZM211.393 204.182C210.552 204.182 209.826 203.996 209.216 203.625C208.61 203.25 208.143 202.727 207.813 202.057C207.487 201.383 207.324 200.598 207.324 199.705C207.324 198.811 207.487 198.023 207.813 197.341C208.143 196.655 208.601 196.121 209.188 195.739C209.779 195.352 210.468 195.159 211.256 195.159C211.711 195.159 212.16 195.235 212.603 195.386C213.046 195.538 213.449 195.784 213.813 196.125C214.177 196.462 214.466 196.909 214.682 197.466C214.898 198.023 215.006 198.708 215.006 199.523V200.091H208.279V198.932H213.643C213.643 198.439 213.544 198 213.347 197.614C213.154 197.227 212.877 196.922 212.518 196.699C212.162 196.475 211.741 196.364 211.256 196.364C210.722 196.364 210.26 196.496 209.87 196.761C209.484 197.023 209.186 197.364 208.978 197.784C208.77 198.205 208.665 198.655 208.665 199.136V199.909C208.665 200.568 208.779 201.127 209.006 201.585C209.237 202.04 209.557 202.386 209.966 202.625C210.376 202.86 210.851 202.977 211.393 202.977C211.745 202.977 212.063 202.928 212.347 202.83C212.635 202.727 212.883 202.576 213.091 202.375C213.3 202.17 213.461 201.917 213.574 201.614L214.87 201.977C214.734 202.417 214.504 202.803 214.182 203.136C213.86 203.466 213.463 203.723 212.989 203.909C212.516 204.091 211.984 204.182 211.393 204.182ZM221.025 204.182C220.184 204.182 219.459 203.996 218.849 203.625C218.243 203.25 217.775 202.727 217.446 202.057C217.12 201.383 216.957 200.598 216.957 199.705C216.957 198.811 217.12 198.023 217.446 197.341C217.775 196.655 218.233 196.121 218.821 195.739C219.411 195.352 220.101 195.159 220.889 195.159C221.343 195.159 221.792 195.235 222.235 195.386C222.679 195.538 223.082 195.784 223.446 196.125C223.809 196.462 224.099 196.909 224.315 197.466C224.531 198.023 224.639 198.708 224.639 199.523V200.091H217.911V198.932H223.275C223.275 198.439 223.177 198 222.98 197.614C222.786 197.227 222.51 196.922 222.15 196.699C221.794 196.475 221.374 196.364 220.889 196.364C220.355 196.364 219.893 196.496 219.502 196.761C219.116 197.023 218.819 197.364 218.61 197.784C218.402 198.205 218.298 198.655 218.298 199.136V199.909C218.298 200.568 218.411 201.127 218.639 201.585C218.87 202.04 219.19 202.386 219.599 202.625C220.008 202.86 220.483 202.977 221.025 202.977C221.377 202.977 221.696 202.928 221.98 202.83C222.268 202.727 222.516 202.576 222.724 202.375C222.932 202.17 223.093 201.917 223.207 201.614L224.502 201.977C224.366 202.417 224.137 202.803 223.815 203.136C223.493 203.466 223.095 203.723 222.622 203.909C222.148 204.091 221.616 204.182 221.025 204.182ZM228.339 198.75V204H226.999V195.273H228.294V196.636H228.408C228.612 196.193 228.923 195.837 229.339 195.568C229.756 195.295 230.294 195.159 230.953 195.159C231.544 195.159 232.061 195.28 232.504 195.523C232.947 195.761 233.292 196.125 233.538 196.614C233.784 197.098 233.908 197.712 233.908 198.455V204H232.567V198.545C232.567 197.86 232.389 197.326 232.033 196.943C231.677 196.557 231.188 196.364 230.567 196.364C230.139 196.364 229.756 196.456 229.419 196.642C229.086 196.828 228.822 197.098 228.629 197.455C228.436 197.811 228.339 198.242 228.339 198.75ZM247.68 197.227L246.475 197.568C246.399 197.367 246.288 197.172 246.14 196.983C245.996 196.79 245.799 196.631 245.549 196.506C245.299 196.381 244.979 196.318 244.589 196.318C244.055 196.318 243.61 196.441 243.254 196.688C242.901 196.93 242.725 197.239 242.725 197.614C242.725 197.947 242.846 198.21 243.089 198.403C243.331 198.597 243.71 198.758 244.225 198.886L245.521 199.205C246.301 199.394 246.882 199.684 247.265 200.074C247.648 200.46 247.839 200.958 247.839 201.568C247.839 202.068 247.695 202.515 247.407 202.909C247.123 203.303 246.725 203.614 246.214 203.841C245.702 204.068 245.108 204.182 244.43 204.182C243.54 204.182 242.803 203.989 242.219 203.602C241.636 203.216 241.267 202.652 241.112 201.909L242.384 201.591C242.505 202.061 242.735 202.413 243.072 202.648C243.413 202.883 243.858 203 244.407 203C245.032 203 245.528 202.867 245.896 202.602C246.267 202.333 246.452 202.011 246.452 201.636C246.452 201.333 246.346 201.08 246.134 200.875C245.922 200.667 245.596 200.511 245.157 200.409L243.702 200.068C242.903 199.879 242.316 199.585 241.941 199.188C241.57 198.786 241.384 198.284 241.384 197.682C241.384 197.189 241.523 196.754 241.799 196.375C242.079 195.996 242.46 195.699 242.941 195.483C243.426 195.267 243.975 195.159 244.589 195.159C245.452 195.159 246.13 195.348 246.623 195.727C247.119 196.106 247.471 196.606 247.68 197.227ZM253.836 204.182C252.995 204.182 252.27 203.996 251.66 203.625C251.054 203.25 250.586 202.727 250.257 202.057C249.931 201.383 249.768 200.598 249.768 199.705C249.768 198.811 249.931 198.023 250.257 197.341C250.586 196.655 251.045 196.121 251.632 195.739C252.223 195.352 252.912 195.159 253.7 195.159C254.155 195.159 254.603 195.235 255.047 195.386C255.49 195.538 255.893 195.784 256.257 196.125C256.62 196.462 256.91 196.909 257.126 197.466C257.342 198.023 257.45 198.708 257.45 199.523V200.091H250.723V198.932H256.086C256.086 198.439 255.988 198 255.791 197.614C255.598 197.227 255.321 196.922 254.961 196.699C254.605 196.475 254.185 196.364 253.7 196.364C253.166 196.364 252.704 196.496 252.314 196.761C251.927 197.023 251.63 197.364 251.422 197.784C251.213 198.205 251.109 198.655 251.109 199.136V199.909C251.109 200.568 251.223 201.127 251.45 201.585C251.681 202.04 252.001 202.386 252.41 202.625C252.819 202.86 253.295 202.977 253.836 202.977C254.189 202.977 254.507 202.928 254.791 202.83C255.079 202.727 255.327 202.576 255.535 202.375C255.744 202.17 255.905 201.917 256.018 201.614L257.314 201.977C257.177 202.417 256.948 202.803 256.626 203.136C256.304 203.466 255.906 203.723 255.433 203.909C254.959 204.091 254.427 204.182 253.836 204.182ZM263.605 195.273V196.409H259.082V195.273H263.605ZM260.401 193.182H261.742V201.5C261.742 201.879 261.797 202.163 261.906 202.352C262.02 202.538 262.164 202.663 262.338 202.727C262.516 202.788 262.704 202.818 262.901 202.818C263.048 202.818 263.17 202.811 263.264 202.795C263.359 202.777 263.435 202.761 263.492 202.75L263.764 203.955C263.673 203.989 263.547 204.023 263.384 204.057C263.221 204.095 263.014 204.114 262.764 204.114C262.386 204.114 262.014 204.032 261.651 203.869C261.291 203.706 260.992 203.458 260.753 203.125C260.518 202.792 260.401 202.371 260.401 201.864V193.182ZM271.442 200.432V195.273H272.783V204H271.442V202.523H271.351C271.147 202.966 270.829 203.343 270.397 203.653C269.965 203.96 269.42 204.114 268.76 204.114C268.215 204.114 267.73 203.994 267.306 203.756C266.882 203.513 266.548 203.15 266.306 202.665C266.063 202.176 265.942 201.561 265.942 200.818V195.273H267.283V200.727C267.283 201.364 267.461 201.871 267.817 202.25C268.177 202.629 268.635 202.818 269.192 202.818C269.526 202.818 269.865 202.733 270.209 202.562C270.558 202.392 270.849 202.131 271.084 201.778C271.323 201.426 271.442 200.977 271.442 200.432ZM275.559 207.273V195.273H276.855V196.659H277.014C277.112 196.508 277.249 196.314 277.423 196.08C277.601 195.841 277.855 195.629 278.184 195.443C278.517 195.254 278.968 195.159 279.536 195.159C280.271 195.159 280.919 195.343 281.48 195.71C282.04 196.078 282.478 196.598 282.792 197.273C283.106 197.947 283.264 198.742 283.264 199.659C283.264 200.583 283.106 201.384 282.792 202.062C282.478 202.737 282.042 203.259 281.485 203.631C280.928 203.998 280.286 204.182 279.559 204.182C278.999 204.182 278.55 204.089 278.213 203.903C277.875 203.714 277.616 203.5 277.434 203.261C277.252 203.019 277.112 202.818 277.014 202.659H276.9V207.273H275.559ZM276.877 199.636C276.877 200.295 276.974 200.877 277.167 201.381C277.36 201.881 277.642 202.273 278.014 202.557C278.385 202.837 278.839 202.977 279.377 202.977C279.938 202.977 280.406 202.83 280.781 202.534C281.16 202.235 281.444 201.833 281.633 201.33C281.826 200.822 281.923 200.258 281.923 199.636C281.923 199.023 281.828 198.47 281.639 197.977C281.453 197.481 281.171 197.089 280.792 196.801C280.417 196.509 279.946 196.364 279.377 196.364C278.832 196.364 278.374 196.502 278.002 196.778C277.631 197.051 277.351 197.434 277.161 197.926C276.972 198.415 276.877 198.985 276.877 199.636ZM122.587 221.227L121.382 221.568C121.306 221.367 121.195 221.172 121.047 220.983C120.903 220.79 120.706 220.631 120.456 220.506C120.206 220.381 119.886 220.318 119.496 220.318C118.962 220.318 118.517 220.441 118.16 220.688C117.808 220.93 117.632 221.239 117.632 221.614C117.632 221.947 117.753 222.21 117.996 222.403C118.238 222.597 118.617 222.758 119.132 222.886L120.428 223.205C121.208 223.394 121.789 223.684 122.172 224.074C122.554 224.46 122.746 224.958 122.746 225.568C122.746 226.068 122.602 226.515 122.314 226.909C122.03 227.303 121.632 227.614 121.121 227.841C120.609 228.068 120.015 228.182 119.337 228.182C118.446 228.182 117.71 227.989 117.126 227.602C116.543 227.216 116.174 226.652 116.018 225.909L117.291 225.591C117.412 226.061 117.642 226.413 117.979 226.648C118.32 226.883 118.765 227 119.314 227C119.939 227 120.435 226.867 120.803 226.602C121.174 226.333 121.359 226.011 121.359 225.636C121.359 225.333 121.253 225.08 121.041 224.875C120.829 224.667 120.503 224.511 120.064 224.409L118.609 224.068C117.81 223.879 117.223 223.585 116.848 223.188C116.477 222.786 116.291 222.284 116.291 221.682C116.291 221.189 116.429 220.754 116.706 220.375C116.986 219.996 117.367 219.699 117.848 219.483C118.333 219.267 118.882 219.159 119.496 219.159C120.359 219.159 121.037 219.348 121.53 219.727C122.026 220.106 122.378 220.606 122.587 221.227ZM130.584 224.432V219.273H131.925V228H130.584V226.523H130.493C130.289 226.966 129.971 227.343 129.539 227.653C129.107 227.96 128.561 228.114 127.902 228.114C127.357 228.114 126.872 227.994 126.448 227.756C126.024 227.513 125.69 227.15 125.448 226.665C125.205 226.176 125.084 225.561 125.084 224.818V219.273H126.425V224.727C126.425 225.364 126.603 225.871 126.959 226.25C127.319 226.629 127.777 226.818 128.334 226.818C128.667 226.818 129.007 226.733 129.351 226.562C129.7 226.392 129.991 226.131 130.226 225.778C130.465 225.426 130.584 224.977 130.584 224.432ZM138.246 228.182C137.428 228.182 136.724 227.989 136.133 227.602C135.542 227.216 135.087 226.684 134.769 226.006C134.451 225.328 134.292 224.553 134.292 223.682C134.292 222.795 134.455 222.013 134.781 221.335C135.11 220.653 135.568 220.121 136.156 219.739C136.746 219.352 137.436 219.159 138.224 219.159C138.837 219.159 139.39 219.273 139.883 219.5C140.375 219.727 140.779 220.045 141.093 220.455C141.407 220.864 141.603 221.341 141.678 221.886H140.337C140.235 221.489 140.008 221.136 139.656 220.83C139.307 220.519 138.837 220.364 138.246 220.364C137.724 220.364 137.265 220.5 136.871 220.773C136.481 221.042 136.176 221.422 135.957 221.915C135.741 222.403 135.633 222.977 135.633 223.636C135.633 224.311 135.739 224.898 135.951 225.398C136.167 225.898 136.47 226.286 136.86 226.562C137.254 226.839 137.716 226.977 138.246 226.977C138.595 226.977 138.911 226.917 139.195 226.795C139.479 226.674 139.72 226.5 139.917 226.273C140.114 226.045 140.254 225.773 140.337 225.455H141.678C141.603 225.97 141.415 226.434 141.116 226.847C140.82 227.256 140.428 227.581 139.94 227.824C139.455 228.062 138.89 228.182 138.246 228.182ZM147.504 228.182C146.686 228.182 145.981 227.989 145.39 227.602C144.799 227.216 144.345 226.684 144.027 226.006C143.709 225.328 143.549 224.553 143.549 223.682C143.549 222.795 143.712 222.013 144.038 221.335C144.368 220.653 144.826 220.121 145.413 219.739C146.004 219.352 146.693 219.159 147.481 219.159C148.095 219.159 148.648 219.273 149.14 219.5C149.633 219.727 150.036 220.045 150.351 220.455C150.665 220.864 150.86 221.341 150.936 221.886H149.595C149.493 221.489 149.265 221.136 148.913 220.83C148.565 220.519 148.095 220.364 147.504 220.364C146.981 220.364 146.523 220.5 146.129 220.773C145.739 221.042 145.434 221.422 145.214 221.915C144.998 222.403 144.89 222.977 144.89 223.636C144.89 224.311 144.996 224.898 145.209 225.398C145.424 225.898 145.727 226.286 146.118 226.562C146.512 226.839 146.974 226.977 147.504 226.977C147.852 226.977 148.169 226.917 148.453 226.795C148.737 226.674 148.977 226.5 149.174 226.273C149.371 226.045 149.512 225.773 149.595 225.455H150.936C150.86 225.97 150.673 226.434 150.373 226.847C150.078 227.256 149.686 227.581 149.197 227.824C148.712 228.062 148.148 228.182 147.504 228.182ZM156.875 228.182C156.034 228.182 155.309 227.996 154.699 227.625C154.093 227.25 153.625 226.727 153.296 226.057C152.97 225.383 152.807 224.598 152.807 223.705C152.807 222.811 152.97 222.023 153.296 221.341C153.625 220.655 154.083 220.121 154.671 219.739C155.261 219.352 155.951 219.159 156.739 219.159C157.193 219.159 157.642 219.235 158.085 219.386C158.529 219.538 158.932 219.784 159.296 220.125C159.659 220.462 159.949 220.909 160.165 221.466C160.381 222.023 160.489 222.708 160.489 223.523V224.091H153.761V222.932H159.125C159.125 222.439 159.027 222 158.83 221.614C158.636 221.227 158.36 220.922 158 220.699C157.644 220.475 157.224 220.364 156.739 220.364C156.205 220.364 155.743 220.496 155.352 220.761C154.966 221.023 154.669 221.364 154.46 221.784C154.252 222.205 154.148 222.655 154.148 223.136V223.909C154.148 224.568 154.261 225.127 154.489 225.585C154.72 226.04 155.04 226.386 155.449 226.625C155.858 226.86 156.333 226.977 156.875 226.977C157.227 226.977 157.546 226.928 157.83 226.83C158.118 226.727 158.366 226.576 158.574 226.375C158.782 226.17 158.943 225.917 159.057 225.614L160.352 225.977C160.216 226.417 159.987 226.803 159.665 227.136C159.343 227.466 158.945 227.723 158.472 227.909C157.998 228.091 157.466 228.182 156.875 228.182ZM169.03 221.227L167.826 221.568C167.75 221.367 167.638 221.172 167.491 220.983C167.347 220.79 167.15 220.631 166.9 220.506C166.65 220.381 166.33 220.318 165.939 220.318C165.405 220.318 164.96 220.441 164.604 220.688C164.252 220.93 164.076 221.239 164.076 221.614C164.076 221.947 164.197 222.21 164.439 222.403C164.682 222.597 165.061 222.758 165.576 222.886L166.871 223.205C167.652 223.394 168.233 223.684 168.616 224.074C168.998 224.46 169.189 224.958 169.189 225.568C169.189 226.068 169.045 226.515 168.758 226.909C168.474 227.303 168.076 227.614 167.564 227.841C167.053 228.068 166.458 228.182 165.78 228.182C164.89 228.182 164.153 227.989 163.57 227.602C162.987 227.216 162.617 226.652 162.462 225.909L163.735 225.591C163.856 226.061 164.085 226.413 164.422 226.648C164.763 226.883 165.208 227 165.758 227C166.383 227 166.879 226.867 167.246 226.602C167.617 226.333 167.803 226.011 167.803 225.636C167.803 225.333 167.697 225.08 167.485 224.875C167.273 224.667 166.947 224.511 166.508 224.409L165.053 224.068C164.254 223.879 163.667 223.585 163.292 223.188C162.92 222.786 162.735 222.284 162.735 221.682C162.735 221.189 162.873 220.754 163.15 220.375C163.43 219.996 163.811 219.699 164.292 219.483C164.777 219.267 165.326 219.159 165.939 219.159C166.803 219.159 167.481 219.348 167.974 219.727C168.47 220.106 168.822 220.606 169.03 221.227ZM177.71 221.227L176.505 221.568C176.429 221.367 176.318 221.172 176.17 220.983C176.026 220.79 175.829 220.631 175.579 220.506C175.329 220.381 175.009 220.318 174.619 220.318C174.085 220.318 173.64 220.441 173.284 220.688C172.931 220.93 172.755 221.239 172.755 221.614C172.755 221.947 172.876 222.21 173.119 222.403C173.361 222.597 173.74 222.758 174.255 222.886L175.551 223.205C176.331 223.394 176.912 223.684 177.295 224.074C177.678 224.46 177.869 224.958 177.869 225.568C177.869 226.068 177.725 226.515 177.437 226.909C177.153 227.303 176.755 227.614 176.244 227.841C175.732 228.068 175.138 228.182 174.46 228.182C173.57 228.182 172.833 227.989 172.249 227.602C171.666 227.216 171.297 226.652 171.142 225.909L172.414 225.591C172.535 226.061 172.765 226.413 173.102 226.648C173.443 226.883 173.888 227 174.437 227C175.062 227 175.558 226.867 175.926 226.602C176.297 226.333 176.482 226.011 176.482 225.636C176.482 225.333 176.376 225.08 176.164 224.875C175.952 224.667 175.626 224.511 175.187 224.409L173.732 224.068C172.933 223.879 172.346 223.585 171.971 223.188C171.6 222.786 171.414 222.284 171.414 221.682C171.414 221.189 171.553 220.754 171.829 220.375C172.109 219.996 172.49 219.699 172.971 219.483C173.456 219.267 174.005 219.159 174.619 219.159C175.482 219.159 176.16 219.348 176.653 219.727C177.149 220.106 177.501 220.606 177.71 221.227ZM184.094 219.273V220.409H179.389V219.273H184.094ZM180.798 228V218.068C180.798 217.568 180.916 217.152 181.15 216.818C181.385 216.485 181.69 216.235 182.065 216.068C182.44 215.902 182.836 215.818 183.253 215.818C183.582 215.818 183.851 215.845 184.06 215.898C184.268 215.951 184.423 216 184.525 216.045L184.139 217.205C184.071 217.182 183.976 217.153 183.855 217.119C183.738 217.085 183.582 217.068 183.389 217.068C182.946 217.068 182.626 217.18 182.429 217.403C182.236 217.627 182.139 217.955 182.139 218.386V228H180.798ZM191.793 224.432V219.273H193.134V228H191.793V226.523H191.702C191.497 226.966 191.179 227.343 190.747 227.653C190.316 227.96 189.77 228.114 189.111 228.114C188.566 228.114 188.081 227.994 187.657 227.756C187.232 227.513 186.899 227.15 186.657 226.665C186.414 226.176 186.293 225.561 186.293 224.818V219.273H187.634V224.727C187.634 225.364 187.812 225.871 188.168 226.25C188.528 226.629 188.986 226.818 189.543 226.818C189.876 226.818 190.215 226.733 190.56 226.562C190.908 226.392 191.2 226.131 191.435 225.778C191.674 225.426 191.793 224.977 191.793 224.432ZM197.251 216.364V228H195.91V216.364H197.251ZM201.368 216.364V228H200.027V216.364H201.368ZM205.007 231.273C204.78 231.273 204.577 231.254 204.399 231.216C204.221 231.182 204.098 231.148 204.03 231.114L204.371 229.932C204.697 230.015 204.984 230.045 205.234 230.023C205.484 230 205.706 229.888 205.899 229.688C206.096 229.491 206.276 229.17 206.439 228.727L206.689 228.045L203.462 219.273H204.916L207.325 226.227H207.416L209.825 219.273H211.28L207.575 229.273C207.409 229.723 207.202 230.097 206.956 230.392C206.71 230.691 206.424 230.913 206.098 231.057C205.776 231.201 205.412 231.273 205.007 231.273Z" fill="#9BA1A8"/>
<defs>
<filter id="filter0_d_2043_4657" x="130.24" y="37" width="152.456" height="96.8" filterUnits="userSpaceOnUse" color-interpolation-filters="sRGB">
<feFlood flood-opacity="0" result="BackgroundImageFix"/>
<feColorMatrix in="SourceAlpha" type="matrix" values="0 0 0 0 0 0 0 0 0 0 0 0 0 0 0 0 0 0 127 0" result="hardAlpha"/>
<feOffset dx="2.2" dy="4.4"/>
<feGaussianBlur stdDeviation="13.2"/>
<feComposite in2="hardAlpha" operator="out"/>
<feColorMatrix type="matrix" values="0 0 0 0 0.0588235 0 0 0 0 0.0901962 0 0 0 0 0.164706 0 0 0 0.08 0"/>
<feBlend mode="normal" in2="BackgroundImageFix" result="effect1_dropShadow_2043_4657"/>
<feBlend mode="normal" in="SourceGraphic" in2="effect1_dropShadow_2043_4657" result="shape"/>
</filter>
<clipPath id="clip0_2043_4657">
<rect x="94.6926" width="137.615" height="120" rx="60" fill="white"/>
</clipPath>
</defs>
</svg>
