<svg width="251" height="227" viewBox="0 0 251 227" fill="none" xmlns="http://www.w3.org/2000/svg">
<g clip-path="url(#clip0_2021_7794)">
<path d="M137.75 14.9409C105.73 14.9409 52.6964 27.9076 52.6964 67.3554C52.6964 100.959 97.7249 130.545 139.952 130.545C182.178 130.545 225.005 106.803 225.005 70.8253C225.005 32.2243 181.178 14.9409 137.75 14.9409Z" fill="url(#paint0_linear_2021_7794)"/>
</g>
<g clip-path="url(#clip1_2021_7794)">
<path d="M227.626 94.6264H168.596C165.777 89.88 172.913 84.8962 178.376 88.2187C176.525 79.1214 192.032 75.087 195.908 83.3142C200.578 73.9005 218.639 75.7991 216.701 88.7726C222.251 85.6874 229.828 89.4844 227.626 94.6264Z" fill="white"/>
</g>
<g clip-path="url(#clip2_2021_7794)">
<path d="M222.236 206.91H26.8811L32.3673 198.965L40.7213 197.369L47.3881 182.543L74.0526 174.027L80.8893 157.782L98.6938 149.698L98.8279 146.124L114.543 125.889L128.567 117.233L129.701 105.841L133.377 68.8781L145.951 51.0866L151.351 50.0986L162.491 30.7871L176.919 81.7266L189.241 89.3364L195.882 128.092L197.004 134.644L207.553 143.616L222.236 206.91Z" fill="url(#paint1_linear_2021_7794)"/>
<path d="M128.567 117.233L127.941 124.226C122.745 127.041 124.061 134.37 120.465 137.533C116.922 140.65 112.839 139.04 109.58 143.236C105.445 148.557 107.555 159.05 98.9475 161.786C91.6741 164.099 85.0233 157.072 80.8893 157.782L98.6936 149.698L98.8279 146.124L114.543 125.889L128.567 117.233ZM195.882 128.092C193.967 130.12 188.354 130.386 184.22 128.029C179.449 125.31 175.275 113.773 166.947 112.23C158.398 110.647 153.377 119.324 145.781 116.272C139.675 113.818 138.946 102.903 129.701 105.841L133.377 68.8779L145.951 51.0865L151.352 50.0984L162.49 30.7871L176.919 81.7266L189.241 89.3363L195.882 128.092L195.882 128.092Z" fill="white"/>
<path d="M222.236 207.211H26.8811C26.8215 207.211 26.763 207.197 26.7116 207.169C26.6603 207.142 26.6179 207.103 26.5889 207.056C26.56 207.009 26.5454 206.956 26.5468 206.902C26.5482 206.849 26.5655 206.796 26.5969 206.751L32.0831 198.806C32.1069 198.771 32.1382 198.742 32.1751 198.718C32.2119 198.695 32.2537 198.679 32.2977 198.67L40.4778 197.108L47.078 182.43C47.0958 182.391 47.1226 182.355 47.1568 182.325C47.1909 182.296 47.2316 182.273 47.2762 182.259L73.7947 173.79L80.5764 157.675C80.606 157.604 80.6638 157.546 80.7386 157.513L98.3658 149.509L98.4934 146.114C98.4956 146.055 98.5165 145.999 98.5536 145.951L114.268 125.716C114.291 125.686 114.32 125.66 114.353 125.64L128.248 117.064L129.367 105.814L133.044 68.851C133.049 68.8031 133.066 68.7566 133.095 68.716L145.668 50.9243C145.693 50.8902 145.724 50.8608 145.761 50.8378C145.798 50.8149 145.84 50.7989 145.884 50.7908L151.128 49.8316L162.194 30.648C162.225 30.5939 162.274 30.5496 162.334 30.5209C162.393 30.4923 162.461 30.4806 162.529 30.4875C162.596 30.4946 162.659 30.5198 162.711 30.56C162.762 30.6002 162.798 30.6534 162.815 30.7125L177.212 81.5422L189.43 89.0876C189.506 89.1347 189.557 89.2081 189.571 89.2903L197.317 134.495L207.783 143.397C207.832 143.439 207.867 143.494 207.88 143.554L222.563 206.848C222.573 206.892 222.572 206.937 222.561 206.981C222.549 207.024 222.527 207.065 222.495 207.1C222.464 207.135 222.424 207.163 222.379 207.182C222.334 207.201 222.285 207.211 222.236 207.211ZM27.4834 206.608H221.824L207.247 143.77L196.775 134.863C196.721 134.817 196.685 134.756 196.674 134.69L188.932 89.5113L176.73 81.9753C176.663 81.9339 176.615 81.8721 176.595 81.8012L162.383 31.6267L151.648 50.2373C151.625 50.2771 151.593 50.3119 151.553 50.339C151.513 50.366 151.467 50.3847 151.418 50.3937L146.157 51.3562L133.703 68.9779L130.034 105.868L128.9 117.259C128.896 117.303 128.881 117.346 128.856 117.385C128.831 117.423 128.797 117.456 128.756 117.481L114.782 126.106L99.1591 146.223L99.0281 149.708C99.0261 149.762 99.0079 149.815 98.9756 149.861C98.9433 149.906 98.8979 149.943 98.8443 149.967L81.1561 157.998L74.3655 174.134C74.3483 174.175 74.3214 174.212 74.2867 174.242C74.252 174.273 74.2103 174.296 74.1645 174.311L47.6419 182.782L41.0313 197.482C41.0107 197.528 40.978 197.569 40.936 197.6C40.8941 197.632 40.8441 197.654 40.7906 197.664L32.5761 199.233L27.4834 206.608Z" fill="#242D35"/>
<path d="M147.174 71.5304C147.167 71.5304 147.16 71.5304 147.153 71.5298C147.109 71.5273 147.066 71.517 147.027 71.4996C146.987 71.4822 146.952 71.4579 146.923 71.4282C146.894 71.3985 146.872 71.3639 146.857 71.3264C146.843 71.289 146.837 71.2494 146.84 71.2099L147.979 55.0968C147.983 55.0529 147.996 55.0101 148.02 54.9716L151.057 49.9535C151.1 49.8843 151.172 49.8331 151.257 49.8111C151.341 49.7891 151.432 49.7981 151.51 49.8361C151.587 49.8742 151.645 49.9382 151.67 50.0142C151.695 50.0902 151.686 50.1722 151.645 50.2423L148.642 55.2017L147.508 71.2481C147.502 71.3246 147.465 71.3963 147.403 71.4487C147.341 71.5011 147.259 71.5303 147.174 71.5304ZM176.92 81.7265L184.705 111.169L180.812 84.1309L176.92 81.7265Z" fill="#242D35"/>
<path d="M184.704 111.471C184.629 111.471 184.556 111.448 184.497 111.406C184.438 111.364 184.397 111.305 184.379 111.239L176.595 81.7966C176.579 81.7373 176.584 81.6753 176.608 81.6185C176.632 81.5617 176.675 81.5129 176.731 81.4785C176.786 81.444 176.852 81.4256 176.92 81.4255C176.987 81.4255 177.053 81.4439 177.109 81.4783L181.002 83.8826C181.08 83.931 181.132 84.0074 181.144 84.0925L185.036 111.131C185.043 111.174 185.039 111.217 185.025 111.258C185.011 111.299 184.987 111.337 184.956 111.369C184.924 111.401 184.886 111.427 184.842 111.444C184.799 111.462 184.752 111.471 184.704 111.471L184.704 111.471ZM177.447 82.4173L183.553 105.513L180.5 84.3034L177.447 82.4173ZM98.5673 207.212C98.5096 207.212 98.4529 207.198 98.4027 207.173C98.3525 207.147 98.3105 207.11 98.2808 207.065C98.2511 207.021 98.2348 206.97 98.2334 206.918C98.2319 206.866 98.2454 206.815 98.2726 206.769L108.272 189.89C108.321 189.807 108.41 189.75 108.512 189.735L114.406 188.85L122.564 171.323C122.59 171.268 122.633 171.221 122.688 171.188C122.742 171.155 122.807 171.138 122.873 171.138H154.243L158.277 143.757C158.284 143.714 158.3 143.672 158.327 143.635L166.631 131.879L164.02 95.4738C164.017 95.4343 164.023 95.3947 164.037 95.3572C164.051 95.3197 164.073 95.2851 164.102 95.2554C164.131 95.2256 164.166 95.2013 164.206 95.1839C164.245 95.1664 164.288 95.1561 164.332 95.1535C164.376 95.151 164.42 95.1562 164.461 95.169C164.503 95.1817 164.541 95.2018 164.574 95.2279C164.607 95.254 164.634 95.2857 164.654 95.3213C164.673 95.3568 164.685 95.3954 164.687 95.4349L167.305 131.938C167.31 132.002 167.292 132.066 167.254 132.12L158.931 143.903L154.867 171.479C154.857 171.551 154.817 171.618 154.756 171.666C154.695 171.714 154.617 171.74 154.536 171.74H123.095L114.952 189.236C114.93 189.283 114.895 189.324 114.851 189.356C114.806 189.387 114.754 189.408 114.698 189.417L108.785 190.305L98.8627 207.052C98.8342 207.101 98.7916 207.141 98.7395 207.169C98.6874 207.197 98.628 207.212 98.5673 207.212ZM197.004 134.644L201.952 163.674L201.156 138.175L197.004 134.644Z" fill="#242D35"/>
<path d="M201.951 163.976C201.871 163.975 201.794 163.95 201.734 163.903C201.673 163.856 201.633 163.791 201.621 163.72L196.673 134.69C196.663 134.627 196.674 134.564 196.705 134.508C196.737 134.452 196.787 134.406 196.848 134.377C196.91 134.348 196.981 134.337 197.05 134.345C197.119 134.354 197.183 134.381 197.234 134.425L201.385 137.955C201.45 138.01 201.487 138.086 201.49 138.166L202.286 163.666C202.287 163.706 202.28 163.746 202.263 163.784C202.247 163.821 202.223 163.855 202.191 163.884C202.16 163.913 202.123 163.936 202.082 163.952C202.04 163.968 201.996 163.976 201.951 163.976ZM197.482 135.465L201.466 158.839L200.825 138.308L197.482 135.465L197.482 135.465ZM162.111 207.212C162.06 207.212 162.011 207.202 161.966 207.182C161.921 207.163 161.881 207.134 161.849 207.099C161.818 207.064 161.796 207.023 161.784 206.979C161.773 206.935 161.773 206.889 161.784 206.845L163.556 199.66C163.568 199.612 163.593 199.567 163.628 199.529C163.664 199.492 163.71 199.463 163.761 199.445L173.947 195.863L176.587 169.704C176.593 169.646 176.618 169.59 176.658 169.544L185.012 160.078C185.067 160.015 185.148 159.975 185.236 159.966C185.324 159.957 185.413 159.98 185.482 160.03C185.552 160.08 185.597 160.152 185.607 160.232C185.617 160.311 185.591 160.391 185.536 160.453L177.244 169.849L174.595 196.103C174.589 196.159 174.567 196.212 174.529 196.257C174.492 196.302 174.441 196.337 174.383 196.357L164.17 199.948L162.437 206.976C162.42 207.043 162.379 207.103 162.32 207.145C162.26 207.188 162.187 207.212 162.111 207.212ZM215.78 206.911L214.008 200.866L207.299 197.559L204.135 180.224L210.17 196.767L216.977 199.126L222.236 206.91L215.78 206.911Z" fill="#242D35"/>
<path d="M215.78 207.212C215.706 207.212 215.634 207.19 215.576 207.149C215.517 207.109 215.475 207.052 215.456 206.987L213.721 201.068L207.138 197.823C207.094 197.801 207.055 197.771 207.026 197.733C206.997 197.696 206.977 197.653 206.969 197.608L203.804 180.273C203.791 180.198 203.809 180.121 203.855 180.057C203.901 179.994 203.973 179.949 204.055 179.931C204.137 179.912 204.223 179.923 204.297 179.96C204.371 179.997 204.426 180.057 204.452 180.13L210.439 196.537L217.098 198.845C217.167 198.869 217.225 198.913 217.263 198.97L222.521 206.753C222.552 206.799 222.569 206.851 222.57 206.905C222.571 206.958 222.557 207.011 222.528 207.058C222.498 207.104 222.456 207.143 222.405 207.17C222.353 207.197 222.295 207.211 222.236 207.211L215.78 207.212V207.212ZM207.603 197.365L214.168 200.602C214.249 200.641 214.308 200.709 214.331 200.789L216.038 206.609L221.64 206.608L216.751 199.371L210.05 197.049C210.004 197.033 209.962 197.008 209.928 196.975C209.894 196.943 209.868 196.904 209.852 196.862L205.166 184.016L207.603 197.365V197.365ZM38.9486 201.396C38.8932 201.396 38.8387 201.383 38.79 201.36C38.7412 201.336 38.6997 201.302 38.6693 201.26C38.6388 201.219 38.6203 201.171 38.6154 201.121C38.6105 201.071 38.6193 201.021 38.6412 200.975L40.4132 197.25C40.4497 197.179 40.5157 197.123 40.5971 197.095C40.6785 197.066 40.7689 197.068 40.849 197.099C40.9291 197.13 40.9927 197.188 41.0262 197.26C41.0597 197.333 41.0604 197.414 41.0283 197.487L39.2562 201.213C39.2304 201.267 39.1875 201.313 39.1329 201.346C39.0782 201.378 39.0141 201.396 38.9486 201.396ZM67.5557 191.968C67.5027 191.968 67.4505 191.957 67.4033 191.935C67.3562 191.913 67.3154 191.882 67.2844 191.843C67.2534 191.804 67.2331 191.759 67.225 191.712C67.217 191.665 67.2215 191.617 67.2383 191.572L73.7359 173.933C73.7498 173.895 73.7717 173.86 73.8004 173.83C73.8291 173.8 73.8641 173.776 73.9034 173.758C73.9426 173.74 73.9854 173.73 74.0292 173.727C74.073 173.724 74.117 173.729 74.1587 173.741C74.2004 173.754 74.239 173.774 74.2722 173.8C74.3054 173.825 74.3327 173.857 74.3524 173.892C74.3721 173.928 74.3838 173.966 74.387 174.006C74.3902 174.045 74.3847 174.085 74.3709 174.122L67.8732 191.761C67.8511 191.821 67.8085 191.874 67.7516 191.911C67.6946 191.948 67.6262 191.968 67.5559 191.968L67.5557 191.968ZM98.6941 149.698L98.5653 175.947L94.3937 151.651L98.6941 149.698Z" fill="#242D35"/>
<path d="M98.565 176.249C98.4852 176.249 98.408 176.223 98.3474 176.176C98.2868 176.129 98.2468 176.064 98.2346 175.993L94.063 151.697C94.0522 151.634 94.0639 151.569 94.0962 151.513C94.1286 151.456 94.18 151.41 94.2431 151.381L98.5437 149.429C98.5949 149.405 98.6517 149.394 98.7089 149.397C98.7661 149.399 98.8217 149.414 98.8704 149.441C98.919 149.469 98.9592 149.506 98.9869 149.552C99.0146 149.597 99.0291 149.647 99.0288 149.699L98.8999 175.949C98.8995 176.028 98.864 176.105 98.8013 176.161C98.7385 176.217 98.6535 176.249 98.565 176.249ZM94.7613 151.821L98.2494 172.136L98.3572 150.188L94.7613 151.821ZM127.301 131.68C127.255 131.68 127.209 131.671 127.167 131.654C127.125 131.638 127.087 131.613 127.055 131.583C127.024 131.552 127 131.516 126.985 131.477C126.97 131.437 126.964 131.396 126.968 131.354L128.233 117.209C128.237 117.169 128.249 117.131 128.269 117.095C128.289 117.06 128.316 117.029 128.35 117.003C128.383 116.977 128.422 116.958 128.464 116.946C128.506 116.934 128.55 116.929 128.594 116.932C128.682 116.939 128.764 116.977 128.821 117.038C128.879 117.098 128.907 117.177 128.9 117.257L127.634 131.403C127.628 131.478 127.59 131.548 127.528 131.6C127.466 131.651 127.385 131.68 127.301 131.68H127.301ZM232.032 207.212H16.5617C16.473 207.212 16.3879 207.18 16.3251 207.124C16.2624 207.067 16.2271 206.99 16.2271 206.91C16.2271 206.83 16.2624 206.754 16.3251 206.697C16.3879 206.641 16.473 206.609 16.5617 206.609H232.032C232.12 206.609 232.205 206.641 232.268 206.697C232.331 206.754 232.366 206.83 232.366 206.91C232.366 206.99 232.331 207.067 232.268 207.124C232.205 207.18 232.12 207.212 232.032 207.212Z" fill="#242D35"/>
</g>
<g clip-path="url(#clip3_2021_7794)">
<path d="M154.103 41.8045H92.5141C90.4014 37.3991 98.5322 29.2258 108.071 34.6747C111.72 20.2411 138.225 20.415 140.594 36.6455C147.508 30.2693 156.151 37.0513 154.103 41.8045Z" fill="white"/>
</g>
<g clip-path="url(#clip4_2021_7794)">
<path d="M189.875 28.6746L181.205 35.0259L139.225 65.7779L133.173 51.1206L124.695 30.584L189.875 28.6746Z" fill="url(#paint2_linear_2021_7794)"/>
<path d="M139.225 66.0795C139.157 66.0795 139.09 66.0607 139.034 66.0256C138.978 65.9906 138.936 65.941 138.912 65.8835L124.382 30.6896C124.363 30.6447 124.357 30.5965 124.363 30.549C124.369 30.5014 124.388 30.4559 124.418 30.4161C124.447 30.3764 124.487 30.3435 124.533 30.3203C124.579 30.2971 124.631 30.2842 124.684 30.2826L189.864 28.373C189.934 28.3706 190.003 28.3883 190.061 28.4236C190.119 28.4588 190.164 28.5098 190.188 28.5692C190.238 28.6907 190.197 28.8273 190.085 28.9089L139.435 66.0123C139.375 66.0563 139.3 66.0795 139.225 66.0795ZM125.17 30.8721L139.375 65.2794L188.894 29.0051L125.17 30.8721Z" fill="#242D35"/>
<path d="M181.205 35.0259L139.225 65.7779L133.173 51.1206C135.851 52.9999 139.599 53.6409 142.817 52.6334C146.319 51.5384 149.04 48.7586 152.671 48.089C154.3 47.7903 156.031 47.9366 157.587 47.4103C159.365 46.8085 160.644 45.4269 161.989 44.2188C167.187 39.5567 174.168 37.0304 181.205 35.0259Z" fill="#242D35"/>
<path d="M139.225 66.0794C139.157 66.0794 139.09 66.0606 139.034 66.0255C138.978 65.9905 138.936 65.9409 138.912 65.8834L132.86 51.2259C132.835 51.1644 132.832 51.097 132.853 51.0341C132.874 50.9712 132.917 50.9161 132.975 50.8772C133.034 50.8383 133.105 50.8178 133.178 50.8187C133.25 50.8196 133.321 50.8418 133.378 50.8821C136.004 52.7248 139.666 53.3005 142.708 52.3482C144.237 51.8699 145.652 51.0397 147.021 50.237C148.749 49.223 150.537 48.1745 152.604 47.7932C153.272 47.6709 153.956 47.621 154.618 47.5727C155.625 47.4994 156.576 47.43 157.47 47.1276C158.895 46.6453 160.021 45.6029 161.11 44.5946C161.324 44.3961 161.538 44.1981 161.754 44.0046C167.159 39.1566 174.569 36.5998 181.104 34.7381C181.178 34.7172 181.258 34.7202 181.33 34.7467C181.402 34.7732 181.461 34.8215 181.498 34.8832C181.535 34.945 181.546 35.0164 181.531 35.0852C181.516 35.154 181.475 35.2158 181.415 35.2601L139.435 66.0122C139.375 66.0562 139.3 66.0794 139.225 66.0794ZM133.859 51.9179L139.375 65.2791L179.605 35.8091C173.591 37.6083 167.068 40.089 162.224 44.4328C162.011 44.6257 161.798 44.8201 161.588 45.016C160.448 46.0715 159.269 47.1629 157.704 47.6926C156.723 48.0246 155.68 48.1006 154.672 48.174C154.029 48.221 153.365 48.2694 152.737 48.3844C150.794 48.7428 149.138 49.7144 147.385 50.7431C145.983 51.5655 144.533 52.416 142.926 52.9183C140.008 53.8322 136.559 53.4317 133.859 51.918L133.859 51.9179Z" fill="#242D35"/>
<path d="M161.038 115.139L125.782 29.7498C125.517 29.1085 124.727 28.7826 124.017 29.0218L124.017 29.0219C123.308 29.2611 122.947 29.9749 123.212 30.6162L158.467 116.005C158.732 116.647 159.522 116.972 160.232 116.733L160.232 116.733C160.942 116.494 161.302 115.78 161.038 115.139Z" fill="white"/>
<path d="M159.751 117.114C159.51 117.114 159.27 117.067 159.044 116.974C158.84 116.89 158.656 116.771 158.503 116.623C158.35 116.474 158.232 116.3 158.154 116.11L122.899 30.7214C122.82 30.532 122.784 30.3302 122.792 30.1279C122.8 29.9255 122.852 29.7267 122.946 29.5427C123.038 29.3583 123.17 29.1924 123.334 29.0544C123.498 28.9164 123.691 28.8092 123.901 28.739C124.782 28.4417 125.766 28.8482 126.095 29.6442L161.35 115.033C161.679 115.829 161.229 116.719 160.348 117.016C160.154 117.081 159.952 117.114 159.751 117.114ZM124.496 29.245C124.375 29.245 124.253 29.264 124.134 29.3043C123.874 29.3918 123.668 29.5654 123.553 29.7933C123.438 30.0212 123.428 30.2759 123.525 30.5106L158.78 115.9C158.827 116.015 158.899 116.121 158.992 116.211C159.085 116.302 159.197 116.374 159.321 116.425C159.445 116.476 159.579 116.505 159.715 116.51C159.851 116.514 159.987 116.494 160.115 116.45C160.373 116.363 160.581 116.187 160.696 115.961C160.81 115.735 160.82 115.477 160.724 115.244L125.469 29.8551C125.395 29.676 125.262 29.5216 125.088 29.4125C124.914 29.3035 124.708 29.2451 124.496 29.245Z" fill="#242D35"/>
</g>
<g clip-path="url(#clip5_2021_7794)">
<path d="M57.374 196.403L55.7168 202.306L65.8345 203.329L69.1489 194.357L57.374 196.403Z" fill="url(#paint3_linear_2021_7794)"/>
<path d="M65.8347 203.631C65.8223 203.631 65.8099 203.63 65.7972 203.629L55.6797 202.606C55.6322 202.601 55.5864 202.587 55.5454 202.565C55.5044 202.543 55.4691 202.513 55.442 202.478C55.4148 202.442 55.3963 202.402 55.3878 202.36C55.3794 202.317 55.381 202.274 55.3928 202.232L57.05 196.329C57.0656 196.274 57.0984 196.223 57.1446 196.184C57.1908 196.144 57.2485 196.118 57.3109 196.107L69.0859 194.061C69.1432 194.051 69.2024 194.054 69.2576 194.071C69.3129 194.089 69.3622 194.118 69.4006 194.158C69.4391 194.198 69.4654 194.246 69.477 194.297C69.4885 194.349 69.4848 194.402 69.4663 194.452L66.1519 203.425C66.1298 203.485 66.0872 203.537 66.0303 203.574C65.9734 203.611 65.9051 203.631 65.835 203.631H65.8347ZM56.135 202.045L65.6028 203.002L68.6509 194.751L57.646 196.663L56.135 202.045V202.045Z" fill="#242D35"/>
<path d="M139.013 162.049L138.141 166.535L127.587 167.046L128.459 159.963L139.013 162.049Z" fill="url(#paint4_linear_2021_7794)"/>
<path d="M127.587 167.348C127.54 167.348 127.494 167.339 127.451 167.322C127.408 167.304 127.37 167.279 127.338 167.248C127.307 167.216 127.283 167.179 127.269 167.138C127.255 167.098 127.25 167.055 127.255 167.013L128.127 159.93C128.133 159.888 128.147 159.847 128.171 159.811C128.195 159.774 128.227 159.743 128.265 159.718C128.303 159.693 128.346 159.676 128.392 159.668C128.438 159.659 128.485 159.659 128.531 159.668L139.085 161.754C139.169 161.771 139.243 161.816 139.291 161.881C139.339 161.945 139.358 162.024 139.343 162.101L138.47 166.587C138.457 166.654 138.419 166.715 138.363 166.761C138.306 166.806 138.235 166.832 138.159 166.836L127.605 167.348C127.599 167.348 127.593 167.348 127.587 167.348H127.587ZM128.751 160.329L127.963 166.726L137.858 166.246L138.629 162.281L128.751 160.329ZM56.4232 199.79C58.2155 199.79 59.2928 201.519 61.0809 201.677C62.869 201.834 65.25 200.701 66.8069 200.697C65.8345 203.329 66.7167 203.759 66.3032 205.014C66.1228 205.562 65.7511 206.042 65.2435 206.384C64.7359 206.726 64.1195 206.91 63.4862 206.91H42.5341C41.7794 206.91 41.2736 206.211 41.5772 205.587L41.7952 205.14C42.202 204.305 42.8646 203.592 43.7051 203.086C44.5455 202.579 45.5288 202.299 46.5394 202.279L49.3611 202.234C50.9439 202.209 52.4682 201.703 53.7015 200.808C54.4362 200.274 55.3883 199.79 56.4232 199.79V199.79Z" fill="#242D35"/>
<path d="M63.4862 207.212H42.5341C42.0663 207.212 41.6345 207.001 41.3789 206.648C41.1233 206.294 41.0828 205.853 41.2711 205.466L41.4891 205.019C42.3684 203.214 44.3479 202.02 46.532 201.977L49.3553 201.932C50.8485 201.908 52.3176 201.425 53.4918 200.573C54.4832 199.853 55.4693 199.488 56.4232 199.488C57.4589 199.488 58.2563 199.991 59.0273 200.478C59.7027 200.905 60.3406 201.308 61.1135 201.376C62.039 201.457 63.1717 201.159 64.2656 200.871C65.1907 200.627 66.0647 200.397 66.8059 200.395H66.8069C66.8599 200.395 66.9121 200.406 66.9593 200.428C67.0065 200.45 67.0472 200.481 67.0782 200.52C67.1092 200.559 67.1295 200.604 67.1374 200.651C67.1454 200.698 67.1408 200.747 67.1241 200.792C66.5612 202.316 66.6414 203.044 66.7125 203.687C66.761 204.128 66.8068 204.544 66.6237 205.1C66.2138 206.343 64.9236 207.212 63.486 207.212L63.4862 207.212ZM56.4232 200.091C55.6257 200.091 54.7806 200.411 53.9111 201.043C52.6217 201.979 51.008 202.509 49.367 202.536L46.5453 202.581C44.6212 202.619 42.8763 203.671 42.1013 205.262L41.8833 205.709C41.7848 205.911 41.805 206.133 41.9388 206.318C42.0725 206.503 42.2895 206.609 42.5341 206.609H63.4862C64.63 206.609 65.6566 205.917 65.9829 204.928C66.1287 204.485 66.0928 204.16 66.0473 203.747C65.9803 203.14 65.8983 202.397 66.3409 201.031C65.7822 201.1 65.1324 201.271 64.4533 201.45C63.2981 201.755 62.1023 202.069 61.0486 201.977C60.1012 201.893 59.3603 201.425 58.644 200.973C57.9261 200.519 57.2482 200.091 56.4234 200.091L56.4232 200.091ZM127.784 165.445C127.54 166.625 127.173 167.568 126.748 168.512C126.323 169.457 125.603 171.405 128.416 171.405H151.335C152.002 171.405 152.436 170.773 152.14 170.235L151.518 169.105C151.212 168.548 150.761 168.066 150.205 167.701C149.648 167.335 149.002 167.095 148.321 167.003L143.193 166.306C141.811 166.118 140.558 165.523 139.502 164.696C139.265 164.511 138.974 164.38 138.621 164.38C137.41 164.38 134.925 165.502 133.616 165.502C131.523 165.502 128.187 163.505 127.784 165.445L127.784 165.445Z" fill="#242D35"/>
<path d="M151.335 171.706H128.416C127.382 171.706 126.668 171.452 126.295 170.951C125.733 170.197 126.107 169.133 126.438 168.399C126.817 167.557 127.203 166.609 127.456 165.389C127.542 164.974 127.753 164.671 128.084 164.49C128.839 164.077 130.019 164.4 131.268 164.742C132.091 164.967 132.942 165.2 133.616 165.2C134.229 165.2 135.183 164.914 136.105 164.638C137.066 164.35 137.974 164.078 138.621 164.078C139.021 164.078 139.391 164.209 139.721 164.468C140.793 165.307 142.011 165.839 143.243 166.007L148.371 166.704C149.105 166.804 149.802 167.062 150.401 167.457C151.001 167.851 151.487 168.37 151.817 168.97L152.439 170.1C152.533 170.269 152.577 170.458 152.567 170.647C152.557 170.836 152.494 171.02 152.382 171.18C152.272 171.342 152.118 171.475 151.935 171.567C151.752 171.659 151.545 171.707 151.335 171.706V171.706ZM128.113 165.5C127.849 166.773 127.45 167.754 127.057 168.626C126.9 168.975 126.421 170.04 126.849 170.614C127.091 170.938 127.619 171.103 128.416 171.103H151.336C151.432 171.104 151.526 171.082 151.61 171.04C151.694 170.998 151.764 170.937 151.814 170.862C151.866 170.789 151.895 170.705 151.9 170.619C151.904 170.532 151.884 170.446 151.84 170.369L151.218 169.239C150.936 168.726 150.521 168.282 150.008 167.944C149.495 167.607 148.899 167.386 148.272 167.301L143.143 166.604C141.786 166.419 140.451 165.838 139.282 164.924C139.075 164.761 138.858 164.682 138.621 164.682C138.081 164.682 137.183 164.951 136.315 165.211C135.343 165.502 134.337 165.803 133.616 165.803C132.843 165.803 131.944 165.557 131.074 165.319C130.02 165.031 128.93 164.732 128.431 165.006C128.267 165.096 128.163 165.257 128.113 165.5Z" fill="#242D35"/>
<path d="M73.183 121.062C74.9274 120.55 76.2794 119.016 77.5004 118.78C78.7214 118.543 78.7462 120.905 78.7462 120.905L74.8402 122.203L73.183 121.062V121.062Z" fill="url(#paint5_linear_2021_7794)"/>
<path d="M74.84 122.505C74.7676 122.505 74.6964 122.484 74.6372 122.443L72.98 121.302C72.9315 121.268 72.894 121.224 72.8716 121.173C72.8492 121.121 72.8428 121.066 72.8531 121.011C72.8633 120.957 72.8898 120.906 72.9297 120.865C72.9697 120.823 73.0214 120.792 73.0795 120.775C73.9262 120.527 74.6773 120.021 75.4035 119.532C76.1047 119.059 76.7672 118.613 77.4302 118.485C77.7478 118.423 78.0452 118.485 78.2901 118.661C79.0412 119.204 79.0787 120.73 79.0805 120.902C79.0812 120.964 79.0605 121.025 79.0213 121.076C78.9822 121.128 78.9264 121.167 78.8617 121.188L74.9557 122.487C74.9187 122.499 74.8796 122.505 74.8402 122.505L74.84 122.505ZM73.855 121.145L74.8967 121.863L78.403 120.697C78.3655 120.147 78.2074 119.374 77.8719 119.132C77.7843 119.069 77.6912 119.051 77.5701 119.075C77.05 119.175 76.4445 119.583 75.8034 120.015C75.2196 120.408 74.5739 120.843 73.855 121.145V121.145Z" fill="#242D35"/>
<path d="M135.533 83.5269C137.015 82.8 138.708 81.8878 139.493 81.2975C140.278 80.7072 141.223 79.9287 141.957 79.5267C143.789 78.5232 144.756 79.2802 146.765 78.4936C148.499 77.8148 148.597 79.0839 147.321 79.7038C148.411 79.566 148.695 80.0776 148.193 80.8254C149.087 80.7072 149.611 81.4352 148.956 81.9665C150.036 82.0847 149.78 82.9463 148.035 83.8849C144.835 85.6066 143.08 85.2672 141.695 85.9903C139.754 87.0036 139.1 87.5547 137.399 89.168C135.797 87.6037 134.977 85.9768 135.533 83.5269Z" fill="url(#paint6_linear_2021_7794)"/>
<path d="M137.4 89.4697H137.397C137.351 89.4694 137.306 89.4606 137.264 89.4439C137.223 89.4272 137.185 89.403 137.154 89.3727C135.267 87.5308 134.684 85.7645 135.206 83.4664C135.216 83.4233 135.236 83.3827 135.265 83.3474C135.294 83.3121 135.331 83.2829 135.374 83.262C136.744 82.5896 138.489 81.6598 139.279 81.0657C139.461 80.9291 139.651 80.7821 139.846 80.6323C140.51 80.1199 141.197 79.59 141.783 79.2688C142.836 78.6923 143.646 78.6557 144.43 78.6204C145.081 78.5912 145.754 78.5607 146.632 78.2168C147.942 77.7034 148.348 78.2275 148.441 78.4008C148.61 78.7141 148.497 79.1091 148.184 79.4551C148.41 79.5295 148.547 79.648 148.63 79.7612C148.727 79.8948 148.838 80.1507 148.704 80.5435C149.059 80.6161 149.35 80.8076 149.494 81.0837C149.614 81.3136 149.612 81.5648 149.501 81.7972C149.791 81.9337 149.888 82.1362 149.919 82.27C150.047 82.8155 149.439 83.481 148.206 84.144C146.212 85.2173 144.778 85.5054 143.626 85.7371C142.919 85.8794 142.36 85.9918 141.863 86.2514C140.003 87.2224 139.364 87.7427 137.642 89.376C137.611 89.4056 137.573 89.4291 137.531 89.4452C137.49 89.4613 137.445 89.4696 137.4 89.4697ZM135.831 83.7239C135.425 85.67 135.887 87.1472 137.407 88.7238C138.999 87.2238 139.687 86.6905 141.528 85.729C142.114 85.4231 142.747 85.2958 143.481 85.1481C144.586 84.9259 145.961 84.6494 147.864 83.6257C148.997 83.0159 149.297 82.5331 149.265 82.3949C149.254 82.3484 149.131 82.2893 148.916 82.2659C148.853 82.2589 148.792 82.2356 148.743 82.1986C148.694 82.1616 148.657 82.1125 148.638 82.0573C148.618 82.0021 148.617 81.943 148.634 81.8871C148.651 81.8312 148.685 81.7809 148.733 81.7422C148.829 81.6642 148.976 81.5085 148.889 81.3401C148.816 81.1994 148.587 81.0783 148.242 81.1237C148.179 81.132 148.115 81.1241 148.057 81.1008C147.999 81.0775 147.95 81.0398 147.915 80.9921C147.88 80.9445 147.86 80.8888 147.859 80.8315C147.858 80.7743 147.874 80.7179 147.907 80.669C148.114 80.361 148.125 80.1664 148.071 80.0934C148.016 80.0172 147.798 79.9479 147.367 80.0022C147.29 80.0124 147.21 79.9974 147.144 79.9599C147.077 79.9224 147.027 79.8649 147.003 79.7974C146.979 79.7301 146.981 79.6573 147.011 79.5916C147.04 79.5259 147.093 79.4715 147.162 79.4379C147.723 79.1653 147.904 78.7837 147.839 78.6639C147.803 78.5962 147.515 78.5284 146.898 78.7702C145.908 79.1578 145.14 79.1925 144.463 79.2229C143.698 79.2575 143.038 79.2872 142.13 79.7844C141.591 80.0802 140.924 80.594 140.28 81.0909C140.083 81.2424 139.891 81.3908 139.707 81.529C138.728 82.2653 136.641 83.3234 135.831 83.7237V83.7239Z" fill="#242D35"/>
<path d="M131.752 85.3704C133.061 84.8112 135.533 83.5269 135.533 83.5269L140.583 90.8994L135.71 93.5753L131.425 89.0596L131.752 85.3703L131.752 85.3704Z" fill="white"/>
<path d="M135.71 93.8772C135.662 93.8772 135.614 93.8678 135.57 93.8496C135.526 93.8314 135.487 93.8048 135.456 93.7717L131.171 89.256C131.142 89.2258 131.12 89.1908 131.107 89.153C131.093 89.1152 131.088 89.0754 131.092 89.0358L131.419 85.3464C131.423 85.2935 131.443 85.2427 131.477 85.199C131.51 85.1553 131.556 85.1204 131.609 85.0978C132.891 84.5502 135.342 83.2782 135.367 83.2656C135.442 83.2265 135.531 83.2153 135.615 83.2345C135.7 83.2537 135.772 83.3018 135.818 83.3684L140.868 90.741C140.891 90.7748 140.906 90.8125 140.913 90.8518C140.92 90.8911 140.919 90.9313 140.908 90.97C140.898 91.0087 140.879 91.0452 140.853 91.0773C140.828 91.1095 140.795 91.1368 140.757 91.1575L135.884 93.8334C135.831 93.8621 135.771 93.8773 135.71 93.8773V93.8772ZM131.769 88.9588L135.779 93.1843L140.122 90.7995L135.419 83.9335C134.767 84.2684 133.14 85.096 132.07 85.5671L131.769 88.9587L131.769 88.9588Z" fill="#242D35"/>
<path d="M72.2889 87.6135C76.0395 86.4526 78.3508 86.1771 81.6869 85.8427C85.0231 85.5082 95.8386 88.4203 95.8386 88.4203L108.049 118.879L86.8546 123.995L70.8823 96.212L72.2887 87.6135H72.2889Z" fill="white"/>
<path d="M86.8548 124.297C86.7936 124.297 86.7335 124.281 86.6812 124.253C86.6289 124.224 86.5863 124.183 86.5581 124.134L70.5856 96.351C70.5532 96.2948 70.5413 96.2308 70.5516 96.1681L71.9581 87.5696C71.967 87.5148 71.9925 87.4633 72.0317 87.4208C72.0708 87.3782 72.1222 87.3462 72.1802 87.3282C75.9061 86.1748 78.2435 85.8842 81.65 85.5429C85.0132 85.2033 95.4899 88.0114 95.9342 88.1312C96.0357 88.1585 96.1169 88.2277 96.153 88.3175L108.364 118.776C108.38 118.816 108.386 118.857 108.383 118.899C108.38 118.941 108.367 118.981 108.346 119.018C108.324 119.055 108.295 119.088 108.258 119.114C108.222 119.14 108.181 119.159 108.136 119.17L86.9412 124.286C86.9131 124.293 86.884 124.296 86.8548 124.296V124.297ZM71.2289 96.1598L87.0278 123.641L107.611 118.673L95.5818 88.6667C94.225 88.308 84.7367 85.8414 81.7237 86.1427C78.4324 86.4727 76.2105 86.7337 72.5897 87.8399L71.2289 96.1598Z" fill="#242D35"/>
<path d="M80.6851 84.721L77.4496 80.5038C80.6401 78.9715 80.7986 75.8854 80.4029 73.8047C80.9748 73.565 81.6015 73.2122 81.4472 72.64C81.3586 72.3114 80.8586 72.0593 79.9358 72.2058C79.1426 70.3436 75.9841 65.5715 71.1115 66.5994C66.0745 67.6619 65.9436 74.5093 65.9436 74.5093L69.0181 77.4607L71.7001 86.3741L79.8118 87.23L80.6851 84.7213V84.721Z" fill="url(#paint7_linear_2021_7794)"/>
<path d="M79.8118 87.5315C79.7989 87.5315 79.7858 87.5309 79.7728 87.5294L71.6613 86.6734C71.5951 86.6664 71.5326 86.6417 71.482 86.6024C71.4315 86.5631 71.3951 86.511 71.3776 86.4529L68.7174 77.6123L65.7001 74.7158C65.6404 74.6585 65.6079 74.5826 65.6093 74.504C65.6148 74.2148 65.8047 67.4089 71.0354 66.3055C75.9323 65.2721 79.169 69.7811 80.1481 71.8747C81.1767 71.7819 81.6664 72.1765 81.7722 72.5684C81.9737 73.3166 81.2324 73.7632 80.772 73.9783C81.03 75.5615 81.1196 78.8612 77.9327 80.6032L80.9602 84.5493C81.0191 84.6259 81.0351 84.7226 81.0044 84.8115L80.1309 87.3203C80.1096 87.3815 80.0671 87.435 80.0098 87.473C79.9525 87.511 79.8832 87.5315 79.8121 87.5315H79.8118ZM71.9634 86.0979L79.5755 86.9011L80.3171 84.7714L77.1746 80.6756C77.1477 80.6406 77.1294 80.6009 77.1208 80.559C77.1121 80.5171 77.1134 80.4741 77.1246 80.4327C77.1357 80.3913 77.1564 80.3525 77.1854 80.3189C77.2143 80.2853 77.2508 80.2575 77.2924 80.2375C80.4773 78.7078 80.4017 75.5826 80.0732 73.8558C80.0608 73.7905 80.0725 73.7233 80.1066 73.6647C80.1407 73.606 80.1952 73.5591 80.2618 73.5311C81.1229 73.1702 81.1741 72.9033 81.1222 72.7111C81.0834 72.5675 80.7422 72.3835 79.9935 72.5028C79.9171 72.5151 79.8383 72.503 79.7707 72.4685C79.7032 72.434 79.651 72.3794 79.6233 72.3139C78.8406 70.4761 75.8007 65.9197 71.1874 66.893C66.8198 67.8142 66.3327 73.4933 66.283 74.3946L69.2614 77.2539C69.299 77.2899 69.3261 77.3337 69.3405 77.3815L71.9634 86.0979Z" fill="#242D35"/>
<path d="M76.7286 72.9632C77.7206 72.659 78.3724 72.0078 78.1845 71.5088C77.9965 71.0098 77.04 70.8519 76.0479 71.1562C75.0559 71.4604 74.4041 72.1116 74.5921 72.6106C74.78 73.1096 75.7366 73.2674 76.7286 72.9632Z" fill="white"/>
<path d="M75.7549 73.4187C75.0271 73.4187 74.4473 73.1635 74.2754 72.7076C74.0243 72.0407 74.7557 71.2336 75.9403 70.8704C77.1253 70.5067 78.2497 70.7449 78.5009 71.4116C78.752 72.0784 78.0208 72.8855 76.8361 73.2489C76.4612 73.364 76.092 73.4187 75.7548 73.4187H75.7549ZM77.0353 71.3027C76.7739 71.3027 76.4709 71.345 76.1555 71.4418C75.3087 71.7016 74.7987 72.2219 74.9085 72.5135C75.0185 72.8048 75.774 72.9374 76.6209 72.6776C77.4676 72.4177 77.9777 71.8974 77.8679 71.6059C77.7988 71.423 77.4755 71.3027 77.0353 71.3027Z" fill="#242D35"/>
<path d="M77.357 72.2563C77.6967 72.2563 77.9722 72.0077 77.9722 71.7011C77.9722 71.3945 77.6967 71.146 77.357 71.146C77.0172 71.146 76.7418 71.3945 76.7418 71.7011C76.7418 72.0077 77.0172 72.2563 77.357 72.2563Z" fill="#242D35"/>
<path d="M78.1668 76.835C77.4394 76.835 76.671 76.597 76.16 76.1657C76.0952 76.111 76.0572 76.0354 76.0542 75.9554C76.0512 75.8754 76.0836 75.7977 76.1441 75.7392C76.2047 75.6808 76.2885 75.6464 76.3771 75.6437C76.4658 75.641 76.5519 75.6702 76.6167 75.7249C77.1916 76.2102 78.2799 76.3796 78.946 76.0871C79.0257 76.0522 79.1176 76.0473 79.2014 76.0734C79.2852 76.0996 79.3541 76.1546 79.393 76.2265C79.4736 76.3763 79.4045 76.5568 79.2385 76.6298C78.9219 76.7688 78.5501 76.835 78.1668 76.835ZM77.4494 80.5037C76.6935 80.9235 74.8183 80.9235 73.7279 80.5037C73.2555 80.3218 72.594 80.9627 74.0768 81.4153C75.0247 81.7046 75.9975 81.4521 76.4318 82.0843C77.1077 83.0682 78.6258 83.2898 79.1492 82.7191L77.4494 80.5037Z" fill="#242D35"/>
<path d="M78.2746 83.3307C78.2266 83.3307 78.1781 83.3292 78.1288 83.3262C77.3319 83.2772 76.5728 82.8623 76.1476 82.2436C75.9683 81.9824 75.6381 81.9393 75.07 81.886C74.7342 81.8544 74.3537 81.8186 73.9698 81.7014C73.2864 81.4928 72.9063 81.2119 72.8398 80.8663C72.7998 80.6578 72.8889 80.4527 73.0783 80.3172C73.2948 80.1627 73.6012 80.127 73.8593 80.2262C74.85 80.6077 76.6055 80.6183 77.2744 80.2469C77.3472 80.2063 77.4345 80.1925 77.5182 80.2083C77.602 80.2242 77.6758 80.2684 77.7244 80.332L79.4241 82.5475C79.4656 82.6016 79.4864 82.6665 79.4832 82.7322C79.4801 82.798 79.4532 82.861 79.4067 82.9117C79.1594 83.1812 78.752 83.3306 78.2746 83.3306V83.3307ZM73.5081 80.7824C73.5484 80.8441 73.7186 80.9877 74.184 81.1298C74.4973 81.2255 74.8236 81.2561 75.1394 81.2858C75.7369 81.3419 76.3549 81.4001 76.716 81.9256C77.0913 82.4718 77.7363 82.697 78.1744 82.724C78.3741 82.7362 78.5551 82.7116 78.694 82.6561L77.3377 80.888C76.3884 81.2262 74.667 81.193 73.5969 80.7814C73.5828 80.7762 73.5677 80.7736 73.5525 80.7738C73.5372 80.774 73.5221 80.7769 73.5081 80.7824Z" fill="#242D35"/>
<path d="M145.031 128.721C144.954 129.632 144.675 131.472 144.277 133.842C144.259 133.954 144.239 134.068 144.219 134.183C142.56 143.955 139.013 162.048 139.013 162.048H125.93C125.93 162.048 128.285 139.973 128.023 131.59L99.11 129.819L71.7653 196.403H57.3733L79.0926 122.735L107.38 115.18C107.38 115.18 114.926 115.548 122.797 116.354C124.002 116.477 125.091 116.589 126.082 116.69C129.429 117.033 131.645 117.262 133.344 117.463C142.677 118.57 145.424 124.082 145.031 128.721Z" fill="url(#paint8_linear_2021_7794)"/>
<path d="M145.031 128.721C144.954 129.632 144.675 131.472 144.277 133.842C144.259 133.954 144.239 134.068 144.219 134.183C142.448 132.131 143.722 129.279 142.187 127.597C141.726 127.088 141.061 126.752 140.611 126.235C140.014 125.55 139.867 124.64 139.528 123.825C137.69 119.406 132.413 120.111 130.962 120.035C127.135 119.835 126.981 118.001 126.082 116.69C129.429 117.033 131.645 117.262 133.344 117.463C142.677 118.57 145.424 124.082 145.031 128.721ZM57.374 196.403L79.4846 122.027L81.6871 121.595L58.9656 196.403H57.374Z" fill="white"/>
<path d="M71.7657 196.705H57.3741C57.3229 196.705 57.2724 196.694 57.2265 196.674C57.1806 196.653 57.1405 196.624 57.1093 196.587C57.0781 196.551 57.0566 196.508 57.0465 196.463C57.0364 196.417 57.0379 196.371 57.051 196.326L78.7691 122.658C78.7838 122.608 78.8125 122.562 78.8524 122.525C78.8924 122.488 78.9423 122.461 78.9973 122.446L107.285 114.891C107.323 114.881 107.363 114.877 107.403 114.879C107.568 114.889 124.022 115.936 131.991 116.897C142.033 118.108 145.985 122.05 145.206 130.078C144.76 134.674 139.396 161.828 139.342 162.102C139.329 162.172 139.288 162.235 139.228 162.28C139.168 162.326 139.092 162.35 139.013 162.35H125.93C125.883 162.35 125.837 162.342 125.795 162.325C125.752 162.308 125.714 162.283 125.682 162.252C125.651 162.221 125.627 162.184 125.613 162.144C125.598 162.104 125.593 162.062 125.597 162.02C125.62 161.802 127.897 140.34 127.697 131.872L99.336 130.135L72.0791 196.508C72.0554 196.566 72.0127 196.616 71.9566 196.651C71.9006 196.686 71.8339 196.705 71.7657 196.705ZM57.8091 196.102H71.5331L98.7961 129.714C98.8208 129.653 98.867 129.601 98.9276 129.565C98.9883 129.53 99.0602 129.513 99.1322 129.518L128.046 131.289C128.129 131.294 128.207 131.327 128.264 131.381C128.322 131.435 128.355 131.506 128.358 131.581C128.599 139.326 126.589 158.955 126.298 161.747H138.733C139.277 158.99 144.12 134.359 144.54 130.025C145.29 122.298 141.628 118.667 131.903 117.495C124.198 116.566 108.521 115.555 107.417 115.485L79.3672 122.977L57.8091 196.102Z" fill="#242D35"/>
<path d="M78.4508 120.638L107.137 113.464L107.909 115.978L79.2231 123.153L78.4508 120.638Z" fill="url(#paint9_linear_2021_7794)"/>
<path d="M79.2233 123.455C79.1502 123.454 79.0791 123.433 79.0209 123.393C78.9628 123.353 78.9207 123.297 78.9012 123.233L78.1288 120.719C78.117 120.681 78.1137 120.641 78.1191 120.601C78.1244 120.562 78.1383 120.524 78.1599 120.49C78.1816 120.455 78.2106 120.425 78.2452 120.4C78.2799 120.376 78.3195 120.358 78.3619 120.347L107.048 113.173C107.133 113.151 107.224 113.162 107.302 113.201C107.379 113.241 107.435 113.306 107.459 113.383L108.232 115.897C108.243 115.935 108.247 115.975 108.241 116.015C108.236 116.054 108.222 116.092 108.2 116.127C108.179 116.161 108.15 116.191 108.115 116.216C108.08 116.24 108.041 116.258 107.998 116.269L79.3127 123.444C79.2836 123.451 79.2535 123.454 79.2233 123.455ZM78.8627 120.849L79.4565 122.781L107.498 115.768L106.904 113.835L78.8627 120.849Z" fill="#242D35"/>
<path d="M94.1148 116.721L99.207 115.447L99.9792 117.962L94.887 119.235L94.1148 116.721Z" fill="white"/>
<path d="M94.8872 119.537C94.8141 119.537 94.743 119.515 94.6848 119.475C94.6267 119.435 94.5846 119.379 94.565 119.315L93.7927 116.801C93.7809 116.763 93.7776 116.723 93.7829 116.683C93.7883 116.644 93.8022 116.606 93.8238 116.572C93.8455 116.537 93.8744 116.507 93.9091 116.482C93.9437 116.458 93.9834 116.44 94.0257 116.43L99.1179 115.156C99.1602 115.145 99.2044 115.142 99.248 115.147C99.2917 115.152 99.3338 115.165 99.372 115.184C99.4102 115.204 99.4438 115.23 99.4708 115.261C99.4979 115.292 99.5178 115.328 99.5294 115.366L100.302 117.881C100.325 117.958 100.314 118.04 100.27 118.11C100.227 118.18 100.154 118.231 100.069 118.252L94.9766 119.526C94.9475 119.533 94.9174 119.537 94.8872 119.537ZM94.5266 116.931L95.1204 118.864L99.5679 117.751L98.9743 115.818L94.5268 116.931H94.5266ZM93.6147 132.069C93.537 132.069 93.4617 132.045 93.4017 132C93.3416 131.956 93.3005 131.894 93.2855 131.826C93.2705 131.757 93.2824 131.686 93.3193 131.624C93.3562 131.562 93.4157 131.514 93.4876 131.488L107.133 126.439C107.174 126.424 107.217 126.416 107.261 126.416C107.305 126.416 107.349 126.424 107.389 126.44C107.43 126.455 107.467 126.477 107.497 126.505C107.528 126.533 107.553 126.567 107.57 126.603C107.586 126.64 107.595 126.679 107.595 126.719C107.594 126.759 107.586 126.798 107.569 126.834C107.552 126.871 107.527 126.904 107.496 126.932C107.465 126.96 107.428 126.982 107.387 126.997L93.7412 132.046C93.6998 132.061 93.6568 132.069 93.6145 132.069H93.6147Z" fill="#242D35"/>
<path d="M101.988 128.881C101.921 128.881 101.856 128.863 101.8 128.829C101.745 128.796 101.702 128.748 101.677 128.692L97.2368 118.682C97.2051 118.608 97.2071 118.526 97.2422 118.453C97.2773 118.38 97.3428 118.323 97.4244 118.293C97.5061 118.264 97.5973 118.264 97.6784 118.295C97.7595 118.326 97.8238 118.384 97.8575 118.458L102.298 128.467C102.319 128.513 102.326 128.563 102.32 128.612C102.315 128.661 102.296 128.708 102.265 128.749C102.234 128.789 102.193 128.823 102.145 128.846C102.097 128.869 102.043 128.881 101.988 128.881H101.988Z" fill="#242D35"/>
<path d="M96.3618 126.756C96.295 126.756 96.2296 126.738 96.1743 126.704C96.1189 126.67 96.0761 126.622 96.0514 126.566L93.0287 119.734C93.0124 119.697 93.0043 119.658 93.0049 119.618C93.0055 119.579 93.0147 119.539 93.032 119.503C93.0493 119.467 93.0744 119.434 93.1059 119.406C93.1373 119.378 93.1745 119.357 93.2153 119.342C93.2561 119.327 93.2996 119.32 93.3435 119.32C93.3875 119.321 93.4308 119.329 93.4712 119.345C93.5115 119.36 93.548 119.383 93.5787 119.411C93.6093 119.44 93.6335 119.473 93.6498 119.51L96.5512 126.069L100.321 124.802C100.362 124.788 100.406 124.781 100.45 124.782C100.495 124.783 100.538 124.792 100.579 124.808C100.619 124.824 100.656 124.848 100.686 124.877C100.716 124.906 100.74 124.94 100.755 124.978C100.771 125.015 100.778 125.055 100.776 125.095C100.774 125.135 100.764 125.175 100.745 125.211C100.726 125.247 100.7 125.28 100.667 125.306C100.634 125.333 100.596 125.354 100.554 125.368L96.4785 126.737C96.4412 126.75 96.4017 126.756 96.3618 126.756ZM83.6762 167.4C84.1292 163.879 81.812 160.682 82.3481 158.383C83.2134 154.67 87.2692 155.201 92.9958 144.706C89.9617 151.905 83.6762 167.4 83.6762 167.4Z" fill="#242D35"/>
<path d="M83.6765 167.702C83.6293 167.702 83.5827 167.693 83.5396 167.675C83.4966 167.658 83.4581 167.632 83.4267 167.601C83.3954 167.569 83.3718 167.531 83.3576 167.491C83.3434 167.45 83.3389 167.407 83.3443 167.365C83.575 165.571 83.0504 163.82 82.5877 162.275C82.157 160.838 81.7503 159.481 82.021 158.32C82.4078 156.66 83.4145 155.787 84.8081 154.579C86.6428 152.989 89.4154 150.585 92.696 144.573C92.7341 144.503 92.8003 144.45 92.881 144.423C92.9616 144.396 93.0505 144.399 93.1292 144.43C93.2079 144.461 93.2704 144.518 93.3037 144.589C93.3371 144.661 93.3388 144.741 93.3084 144.813C90.3098 151.928 84.0533 167.349 83.9904 167.504C83.9669 167.562 83.9242 167.612 83.8681 167.647C83.812 167.683 83.7451 167.702 83.6767 167.702H83.6765ZM91.0046 148.623C88.6708 152.067 86.6941 153.781 85.2713 155.015C83.9155 156.19 83.0197 156.967 82.6753 158.444C82.4377 159.464 82.8063 160.693 83.2331 162.118C83.5596 163.208 83.916 164.397 84.0314 165.649C85.3909 162.305 88.5543 154.538 91.0046 148.623ZM67.5789 192.573C67.5263 192.573 67.4743 192.562 67.4274 192.54C67.3805 192.518 67.3399 192.487 67.3089 192.449C67.2779 192.41 67.2574 192.366 67.2491 192.319C67.2407 192.272 67.2447 192.224 67.2608 192.178L87.9322 134.448C87.9595 134.372 88.0192 134.309 88.0982 134.273C88.1373 134.254 88.18 134.244 88.2237 134.24C88.2675 134.237 88.3116 134.242 88.3534 134.254C88.3951 134.266 88.4339 134.286 88.4673 134.311C88.5007 134.337 88.5282 134.369 88.5482 134.404C88.5682 134.439 88.5803 134.478 88.5838 134.517C88.5873 134.557 88.5822 134.596 88.5687 134.634L67.8972 192.364C67.8755 192.425 67.833 192.478 67.7759 192.515C67.7187 192.553 67.6497 192.573 67.5789 192.573ZM129.986 158.455C129.94 158.455 129.894 158.446 129.852 158.429C129.81 158.413 129.772 158.388 129.74 158.358C129.709 158.327 129.685 158.291 129.67 158.252C129.655 158.213 129.649 158.171 129.652 158.129L131.091 141.601C131.099 141.522 131.141 141.448 131.208 141.396C131.275 141.344 131.363 141.318 131.451 141.324C131.495 141.327 131.537 141.338 131.576 141.356C131.616 141.374 131.65 141.399 131.679 141.429C131.707 141.459 131.729 141.494 131.743 141.531C131.756 141.569 131.762 141.609 131.758 141.648L130.319 158.176C130.312 158.252 130.275 158.323 130.213 158.374C130.151 158.426 130.07 158.454 129.986 158.455ZM128.023 131.59C131.381 131.786 133.169 133.203 132.995 135.131C132.821 137.06 128.285 143.946 127.228 148.117C127.674 140.955 128.111 135.682 128.023 131.59V131.59Z" fill="#242D35"/>
<path d="M127.228 148.419C127.183 148.419 127.137 148.41 127.096 148.394C127.054 148.378 127.016 148.354 126.985 148.324C126.954 148.294 126.929 148.259 126.914 148.221C126.898 148.182 126.891 148.141 126.894 148.1C126.984 146.65 127.074 145.277 127.16 143.975C127.494 138.875 127.758 134.847 127.689 131.595C127.688 131.554 127.697 131.512 127.715 131.474C127.732 131.435 127.759 131.4 127.792 131.371C127.826 131.343 127.865 131.32 127.909 131.306C127.953 131.292 127.999 131.286 128.045 131.289C130.084 131.408 131.636 131.966 132.531 132.901C133.129 133.526 133.405 134.306 133.328 135.156C133.242 136.104 132.264 137.987 131.026 140.37C129.661 142.999 128.113 145.978 127.554 148.184C127.537 148.251 127.495 148.31 127.436 148.353C127.377 148.395 127.304 148.419 127.228 148.419L127.228 148.419ZM128.363 131.917C128.409 135.133 128.151 139.07 127.827 144.011C127.792 144.555 127.755 145.112 127.718 145.682C128.458 143.892 129.482 141.921 130.42 140.114C131.534 137.971 132.586 135.946 132.662 135.107C132.725 134.412 132.51 133.803 132.024 133.295C131.3 132.539 130.039 132.065 128.363 131.917ZM133.126 132.187C133.057 132.187 132.991 132.168 132.934 132.132C132.878 132.097 132.836 132.047 132.812 131.989C132.788 131.931 132.785 131.868 132.802 131.809C132.819 131.749 132.857 131.695 132.909 131.655C133.218 131.418 133.229 131.315 133.229 131.313C133.199 131.266 132.968 131.167 132.845 131.113C132.555 130.989 132.226 130.847 132.175 130.543C132.126 130.253 132.379 130.041 132.462 129.972C132.778 129.708 132.814 129.502 132.762 129.429C132.708 129.353 132.481 129.286 132.098 129.429C131.63 129.603 131.132 129.528 130.857 129.243C130.61 128.986 130.601 128.622 130.832 128.269C130.876 128.201 130.923 128.107 130.893 128.052C130.824 127.926 130.486 127.75 129.271 127.621L113.673 126.578C113.629 126.575 113.586 126.565 113.547 126.547C113.508 126.529 113.473 126.505 113.444 126.475C113.415 126.445 113.393 126.41 113.38 126.372C113.366 126.334 113.361 126.295 113.364 126.255C113.367 126.216 113.379 126.177 113.399 126.142C113.418 126.106 113.446 126.075 113.479 126.049C113.512 126.023 113.551 126.003 113.592 125.991C113.634 125.979 113.678 125.974 113.722 125.977L129.334 127.02C130.448 127.138 131.233 127.313 131.492 127.784C131.582 127.948 131.641 128.219 131.408 128.576C131.37 128.633 131.291 128.774 131.362 128.847C131.432 128.92 131.624 128.953 131.842 128.871C132.476 128.636 133.057 128.727 133.325 129.104C133.534 129.397 133.536 129.896 132.917 130.414C132.904 130.426 132.89 130.437 132.878 130.45C132.948 130.489 133.058 130.537 133.133 130.569C133.448 130.705 133.84 130.874 133.893 131.239C133.945 131.604 133.604 131.914 133.343 132.115C133.282 132.161 133.205 132.187 133.126 132.187L133.126 132.187Z" fill="#242D35"/>
<path d="M92.3712 123.207C87.901 125.254 81.4464 126.198 77.1951 124.978C76.9277 122.557 76.4529 120.042 75.7574 117.488V117.485C74.6507 113.427 72.9857 109.276 70.6987 105.268C68.4369 101.299 65.5682 97.4704 62.0308 94.0099C61.7064 93.6916 61.3754 93.3763 61.0378 93.064C63.3481 91.4876 66.17 90.056 68.7879 88.9488C70.025 88.4253 71.217 87.9743 72.2886 87.6138C75.9714 89.7724 80.4049 94.2738 84.2064 100.389C88.0598 106.591 91.2628 114.45 92.3712 123.207Z" fill="url(#paint10_linear_2021_7794)"/>
<path d="M68.7879 88.9487C68.2496 89.8734 67.3586 90.7635 66.6565 91.3156C65.8574 91.9461 64.7942 92.2147 63.8714 92.6868C63.1809 93.0413 62.5841 93.4999 62.0308 94.0098C61.7064 93.6915 61.3754 93.3762 61.0378 93.0639C63.3481 91.4876 66.17 90.056 68.7879 88.9487Z" fill="white"/>
<path d="M81.5912 125.819C79.9376 125.819 78.396 125.64 77.0938 125.266C77.0316 125.248 76.9765 125.214 76.9354 125.168C76.8943 125.122 76.8689 125.067 76.8625 125.008C76.5913 122.554 76.1102 120.049 75.4326 117.56C75.4308 117.554 75.4293 117.547 75.4281 117.54C74.2729 113.31 72.5818 109.227 70.4015 105.406C67.8123 100.861 64.5813 96.7796 60.7984 93.2746C60.7653 93.244 60.7398 93.2073 60.7236 93.1671C60.7074 93.1269 60.7008 93.084 60.7044 93.0413C60.708 92.9986 60.7216 92.9571 60.7443 92.9196C60.767 92.882 60.7983 92.8492 60.8361 92.8234C64.418 90.3793 69.0404 88.3836 72.1719 87.3312C72.2208 87.3148 72.2733 87.3089 72.3253 87.3141C72.3772 87.3192 72.427 87.3353 72.4708 87.3609C76.4903 89.7169 80.8741 94.4119 84.498 100.242C87.536 105.131 91.4255 113.078 92.7036 123.173C92.7113 123.234 92.6981 123.296 92.6658 123.35C92.6334 123.405 92.5835 123.448 92.5227 123.476C89.2208 124.988 85.1486 125.819 81.5912 125.819V125.819ZM77.5054 124.748C81.4079 125.783 87.424 125.072 92.0121 123.032C90.72 113.136 86.9016 105.344 83.9147 100.537C80.437 94.9424 76.0866 90.252 72.2468 87.9502C69.2529 88.9707 64.9605 90.8292 61.5421 93.1008C65.2577 96.593 68.437 100.639 70.996 105.13C73.203 108.998 74.9142 113.131 76.0821 117.413C76.0839 117.42 76.0856 117.427 76.0868 117.434C76.751 119.876 77.2279 122.336 77.5053 124.748L77.5054 124.748Z" fill="#242D35"/>
<path d="M84.2064 100.389L84.2048 100.391L74.4468 97.5896L75.1021 92.6899L70.1304 91.3911L72.2886 87.6138C75.9714 89.7724 80.4049 94.2738 84.2064 100.389Z" fill="url(#paint11_linear_2021_7794)"/>
<path d="M84.2048 100.693C84.1708 100.693 84.1367 100.688 84.1035 100.678L74.3455 97.8771C74.2713 97.8557 74.2077 97.8117 74.1656 97.7526C74.1236 97.6935 74.1056 97.6231 74.115 97.5533L74.7362 92.9083L70.0376 91.6807C69.9901 91.6683 69.9463 91.6466 69.9093 91.6171C69.8723 91.5877 69.843 91.5511 69.8235 91.5102C69.804 91.4693 69.7948 91.425 69.7965 91.3804C69.7983 91.3359 69.811 91.2923 69.8336 91.2527L71.9917 87.4754C72.0131 87.438 72.043 87.405 72.0795 87.3786C72.1159 87.3522 72.158 87.3329 72.2032 87.3221C72.2484 87.3113 72.2955 87.3091 72.3417 87.3158C72.3878 87.3224 72.4319 87.3377 72.4711 87.3606C76.4907 89.7166 80.8745 94.4116 84.4983 100.242C84.534 100.299 84.5479 100.365 84.538 100.431C84.528 100.496 84.4947 100.556 84.4432 100.603L84.4415 100.604C84.3788 100.661 84.2938 100.693 84.2051 100.693H84.2048ZM74.8117 97.3776L83.4933 99.8698C80.1413 94.6508 76.0587 90.2935 72.4145 88.0517L70.6138 91.2031L75.1951 92.4001C75.2712 92.42 75.3371 92.4637 75.3809 92.5234C75.4246 92.5831 75.4434 92.6549 75.434 92.7259L74.8117 97.3776ZM75.7574 117.485C74.6508 113.427 72.9857 109.276 70.6988 105.268C70.7054 105.254 70.7105 105.242 70.7171 105.23C72.419 104.526 74.8731 104.171 76.2456 106.051C77.4543 107.709 74.8413 113.289 75.7574 117.485Z" fill="#242D35"/>
<path d="M75.7571 117.787C75.6824 117.787 75.6099 117.764 75.5511 117.723C75.4923 117.681 75.4506 117.623 75.4328 117.558C74.2776 113.321 72.5848 109.232 70.4015 105.406C70.3786 105.366 70.366 105.322 70.3646 105.276C70.3631 105.231 70.373 105.186 70.3933 105.145C70.4042 105.122 70.4107 105.109 70.4181 105.095C70.4522 105.034 70.5085 104.985 70.5777 104.956C71.5268 104.563 74.7606 103.469 76.5246 105.885C77.1848 106.79 76.8702 108.514 76.4721 110.695C76.0759 112.866 75.6267 115.326 76.0854 117.427C76.095 117.471 76.0936 117.516 76.0816 117.559C76.0695 117.602 76.0469 117.643 76.0155 117.677C75.9841 117.712 75.9447 117.739 75.9 117.758C75.8553 117.777 75.8065 117.787 75.7571 117.787ZM71.1444 105.392C72.8061 108.343 74.1803 111.446 75.2462 114.65C75.323 113.278 75.5769 111.887 75.8124 110.597C76.1572 108.709 76.4826 106.925 75.9662 106.217C74.6516 104.416 72.3342 104.953 71.1444 105.392Z" fill="#242D35"/>
<path d="M137.508 94.1063C134.432 96.3736 124.572 102.116 113.714 101.943C110.714 101.896 107.636 101.395 104.605 100.246L104.608 100.249C106.731 103.26 108.987 109.869 109.838 113.292C110.254 114.967 110.145 115.517 109.15 116.538C107.974 117.748 105.389 118.929 102.871 119.371C101.126 109.584 98.1237 102.264 93.8156 96.5365C90.5373 92.1784 86.5017 88.742 81.6871 85.8427C92.3294 83.6613 101.313 87.6468 108.86 88.7194C108.942 88.7314 109.023 88.742 109.105 88.7526C110.256 88.9064 111.371 88.9909 112.454 88.9713C115.605 88.914 118.489 88.6062 121.027 88.1869C121.037 88.1854 121.048 88.1824 121.058 88.1808C126.46 87.2863 130.285 85.8924 131.752 85.3705C133.125 87.318 137.508 94.1063 137.508 94.1063Z" fill="url(#paint12_linear_2021_7794)"/>
<path d="M102.871 119.673C102.792 119.673 102.715 119.647 102.655 119.601C102.594 119.554 102.554 119.49 102.541 119.419C100.851 109.943 97.9065 102.513 93.5388 96.7062C90.4263 92.5687 86.4889 89.0975 81.5014 86.0939C81.4471 86.0611 81.4045 86.0147 81.3791 85.9604C81.3537 85.9061 81.3465 85.8462 81.3583 85.7882C81.3702 85.7302 81.4006 85.6767 81.4459 85.6341C81.4911 85.5916 81.5492 85.5619 81.6129 85.5488C89.3402 83.9652 96.1853 85.5947 102.225 87.0322C104.58 87.5927 106.804 88.1222 108.912 88.4216C108.993 88.4337 109.073 88.444 109.153 88.4544C110.373 88.6176 111.45 88.6896 112.447 88.6699C115.281 88.6185 118.148 88.3562 120.966 87.8906C120.979 87.8876 120.993 87.8852 121.005 87.8834C126.21 87.0211 129.914 85.7015 131.495 85.1379L131.63 85.0902C131.702 85.0645 131.782 85.0622 131.856 85.0839C131.929 85.1055 131.993 85.1498 132.034 85.209C133.395 87.1391 137.753 93.8868 137.797 93.9549C137.837 94.0169 137.851 94.0898 137.837 94.1605C137.823 94.2312 137.781 94.295 137.72 94.3404C137.276 94.6673 126.842 102.249 114.21 102.249C114.043 102.249 113.876 102.248 113.708 102.245C110.799 102.2 108.004 101.731 105.386 100.851C107.352 104.098 109.355 109.975 110.164 113.226C110.603 114.994 110.46 115.65 109.401 116.738C108.162 118.012 105.503 119.217 102.935 119.668C102.914 119.671 102.893 119.673 102.871 119.673L102.871 119.673ZM82.5245 85.9908C87.2781 88.9462 91.0674 92.3462 94.0921 96.3673C98.4677 102.185 101.43 109.595 103.145 119.011C105.441 118.546 107.819 117.449 108.899 116.339C109.816 115.398 109.907 114.952 109.511 113.358C108.645 109.875 106.4 103.355 104.329 100.415C104.292 100.364 104.272 100.304 104.273 100.243C104.274 100.182 104.295 100.123 104.334 100.073C104.377 100.017 104.44 99.9756 104.513 99.9564C104.586 99.9372 104.664 99.9412 104.734 99.9678C107.532 101.029 110.556 101.592 113.72 101.641C123.626 101.798 133.181 96.8271 137.074 94.0341C136.333 92.8879 132.952 87.6683 131.617 85.7428C129.953 86.3352 126.263 87.6255 121.118 88.4776L121.085 88.4841C118.233 88.9552 115.33 89.2207 112.46 89.2729C111.426 89.2902 110.312 89.2189 109.056 89.051C108.972 89.0403 108.889 89.029 108.805 89.0169C106.666 88.7128 104.426 88.1797 102.054 87.6152C96.2898 86.2432 89.782 84.6941 82.5242 85.9904L82.5245 85.9908Z" fill="#242D35"/>
<path d="M94.0948 91.293L93.8156 96.5366C90.5373 92.1785 86.5017 88.7421 81.6871 85.8428C82.0148 85.8624 87.4647 86.8852 87.4647 86.8852L87.3777 88.46L94.0948 91.293Z" fill="url(#paint13_linear_2021_7794)"/>
<path d="M93.8156 96.8382C93.761 96.8382 93.7073 96.8262 93.6591 96.8031C93.6109 96.78 93.5697 96.7467 93.5391 96.7059C90.4265 92.5684 86.489 89.0972 81.5015 86.0936C81.4402 86.0567 81.3941 86.0026 81.3704 85.9397C81.3467 85.8767 81.3466 85.8085 81.3703 85.7455C81.394 85.6826 81.44 85.6284 81.5013 85.5915C81.5626 85.5546 81.6357 85.537 81.7092 85.5414C82.0432 85.5615 86.6188 86.418 87.5327 86.5894C87.694 86.6196 87.8069 86.7513 87.7985 86.8999L87.7229 88.2723L94.2364 91.0196C94.2964 91.0449 94.3468 91.0858 94.3811 91.137C94.4153 91.1882 94.432 91.2475 94.4288 91.3073L94.1496 96.5509C94.1454 96.6283 94.1084 96.7012 94.0462 96.7547C93.9841 96.8082 93.9015 96.8382 93.8156 96.8382ZM83.1745 86.4013C87.3399 89.0768 90.7439 92.1133 93.5289 95.6364L93.7501 91.4806L87.2363 88.7331C87.1761 88.7078 87.1257 88.6668 87.0915 88.6154C87.0573 88.5641 87.0407 88.5047 87.044 88.4449L87.1166 87.1279C85.8035 86.8817 84.4895 86.6395 83.1746 86.4014L83.1745 86.4013ZM113.714 101.943C110.714 101.896 107.636 101.395 104.605 100.246C103.309 98.1778 102.188 96.3691 101.447 95.1774C100.979 94.4246 100.063 92.186 103.426 92.7094C105.956 93.1032 106.619 95.5092 106.872 96.6844C107.439 99.3197 109.836 101.064 113.714 101.943Z" fill="#242D35"/>
<path d="M113.715 102.245H113.709C110.459 102.194 107.353 101.615 104.475 100.524C104.407 100.498 104.35 100.453 104.314 100.395C103.22 98.649 102.251 97.088 101.529 95.9269L101.156 95.3253C100.997 95.0709 100.242 93.7597 100.9 92.9198C101.321 92.3819 102.191 92.2113 103.483 92.4125C105.413 92.7128 106.664 94.131 107.2 96.6271C107.73 99.088 109.949 100.778 113.796 101.651C113.875 101.669 113.944 101.712 113.991 101.773C114.037 101.833 114.057 101.907 114.047 101.98C114.037 102.053 113.998 102.121 113.936 102.17C113.875 102.218 113.796 102.245 113.715 102.245L113.715 102.245ZM104.84 100.008C106.844 100.757 108.963 101.253 111.166 101.487C108.55 100.447 106.998 98.8566 106.544 96.7419C106.059 94.4856 105.021 93.2639 103.37 93.0069C102.367 92.8509 101.702 92.9411 101.446 93.2677C101.092 93.7196 101.483 94.6179 101.739 95.0299L102.113 95.6317C103.019 97.0917 103.928 98.5504 104.84 100.008H104.84ZM120.456 91.2945C121.286 92.9554 117.282 93.2662 115.187 91.5555C113.953 90.5463 111.093 89.0559 109.105 88.7527C110.256 88.9066 111.371 88.991 112.454 88.9714C115.605 88.9141 118.489 88.6064 121.027 88.187C118.882 88.5988 119.816 90.0108 120.456 91.2945Z" fill="#242D35"/>
<path d="M118.626 92.9952C117.415 92.9952 115.967 92.5995 114.963 91.7789C113.816 90.841 111.012 89.3494 109.05 89.05C108.963 89.0362 108.887 88.9923 108.836 88.928C108.785 88.8636 108.764 88.7838 108.778 88.7057C108.792 88.6277 108.839 88.5576 108.909 88.5105C108.98 88.4635 109.068 88.4432 109.154 88.4541C110.373 88.6172 111.451 88.6881 112.447 88.6695C115.282 88.6181 118.148 88.3558 120.966 87.8901C121.053 87.876 121.142 87.893 121.214 87.9376C121.287 87.9821 121.337 88.0506 121.354 88.1283C121.371 88.2061 121.354 88.2868 121.305 88.353C121.257 88.4192 121.182 88.4655 121.096 88.482C120.566 88.5839 120.231 88.754 120.102 88.9878C119.863 89.4182 120.237 90.1465 120.599 90.851C120.654 90.958 120.709 91.0648 120.761 91.1707C121.041 91.7296 120.902 92.2465 120.381 92.5888C119.971 92.8576 119.34 92.9951 118.626 92.9952H118.626ZM111.819 89.273C113.287 89.8994 114.68 90.7335 115.412 91.3318C116.826 92.4862 119.191 92.6234 119.987 92.1008C120.25 91.9279 120.301 91.7173 120.152 91.4184C120.1 91.3144 120.046 91.2094 119.992 91.1044C119.565 90.2728 119.124 89.4131 119.5 88.724C117.17 89.0456 114.818 89.229 112.461 89.2731C112.247 89.2769 112.033 89.2769 111.819 89.2731L111.819 89.273ZM142.633 82.9371C142.551 82.9369 142.472 82.9097 142.411 82.8606C142.35 82.8114 142.311 82.7438 142.301 82.6704C142.292 82.5971 142.312 82.5232 142.359 82.4626C142.406 82.4021 142.476 82.3591 142.555 82.3419C142.856 82.2774 144.35 81.893 144.305 80.658C144.302 80.5856 144.329 80.5148 144.379 80.4585C144.429 80.4022 144.5 80.3641 144.579 80.3512C145.651 80.1753 146.696 79.7005 147.144 79.4479C147.181 79.4268 147.223 79.4126 147.266 79.406C147.309 79.3995 147.353 79.4007 147.396 79.4096C147.439 79.4184 147.479 79.4349 147.515 79.4579C147.551 79.4809 147.581 79.51 147.605 79.5437C147.628 79.5772 147.644 79.6146 147.651 79.6537C147.658 79.6928 147.657 79.7328 147.647 79.7714C147.637 79.81 147.619 79.8465 147.593 79.8787C147.568 79.911 147.536 79.9384 147.498 79.9594C147.047 80.214 146.041 80.675 144.966 80.8954C144.857 82.0561 143.713 82.7136 142.711 82.9289C142.685 82.9344 142.659 82.9372 142.633 82.9372L142.633 82.9371Z" fill="#242D35"/>
<path d="M144.394 82.8061C144.115 82.8061 143.841 82.733 143.699 82.5283C143.539 82.2967 143.606 82.0086 143.899 81.6716C143.926 81.6402 143.96 81.6139 143.998 81.5943C144.036 81.5746 144.078 81.562 144.122 81.5571C144.166 81.5523 144.21 81.5552 144.253 81.5659C144.295 81.5765 144.335 81.5947 144.369 81.6192C144.404 81.6437 144.433 81.6742 144.455 81.7089C144.476 81.7435 144.49 81.7817 144.495 81.8212C144.5 81.8607 144.497 81.9007 144.485 81.9389C144.473 81.9772 144.452 82.0129 144.425 82.044C144.382 82.0918 144.344 82.1433 144.312 82.1976C144.405 82.2062 144.499 82.2012 144.591 82.183C145.479 82.0111 147.335 81.245 147.943 80.6253C148.002 80.5666 148.085 80.5313 148.172 80.527C148.26 80.5228 148.346 80.5499 148.412 80.6025C148.478 80.6551 148.518 80.7289 148.524 80.8081C148.53 80.8872 148.501 80.9653 148.444 81.0253C147.72 81.7628 145.723 82.5811 144.731 82.7731C144.62 82.7946 144.507 82.8057 144.394 82.8061Z" fill="#242D35"/>
<path d="M145.077 83.7291C144.657 83.7291 144.18 83.5615 144.02 83.2135C143.935 83.0316 143.879 82.6638 144.449 82.2442C144.518 82.194 144.606 82.1705 144.694 82.1787C144.782 82.1869 144.863 82.2263 144.919 82.2881C144.974 82.3499 145.001 82.4291 144.992 82.5085C144.984 82.5879 144.94 82.6609 144.872 82.7116C144.653 82.8729 144.632 82.9701 144.637 82.9812C144.665 83.0435 144.901 83.1476 145.149 83.1223C146.497 82.9933 148.171 82.2843 148.712 81.7607C148.772 81.7021 148.856 81.6676 148.945 81.6647C149.033 81.6619 149.119 81.6909 149.184 81.7454C149.249 81.8 149.288 81.8755 149.291 81.9555C149.294 82.0355 149.262 82.1133 149.201 82.1719C148.568 82.7856 146.777 83.5733 145.219 83.7223C145.172 83.7268 145.125 83.7292 145.077 83.7291Z" fill="#242D35"/>
<path d="M146.227 84.7777C145.423 84.7777 144.679 84.5 144.481 84.0514C144.423 83.9194 144.292 83.4643 145.043 83.149C145.083 83.1323 145.126 83.1228 145.17 83.1211C145.214 83.1194 145.258 83.1256 145.299 83.1391C145.34 83.1527 145.378 83.1735 145.41 83.2003C145.443 83.2271 145.469 83.2594 145.487 83.2953C145.506 83.3312 145.516 83.3701 145.518 83.4097C145.52 83.4493 145.513 83.4888 145.498 83.526C145.483 83.5632 145.46 83.5974 145.43 83.6266C145.401 83.6558 145.365 83.6794 145.325 83.6961C145.132 83.7773 145.101 83.8396 145.1 83.8402C145.106 83.8437 145.155 83.9114 145.312 83.9883C145.662 84.1612 146.327 84.2614 146.959 84.0713C147.043 84.0472 147.134 84.0539 147.212 84.0899C147.291 84.1259 147.35 84.1883 147.378 84.2635C147.406 84.3388 147.4 84.4209 147.361 84.4921C147.322 84.5632 147.254 84.6177 147.171 84.6438C146.866 84.7352 146.542 84.7779 146.227 84.7779L146.227 84.7777Z" fill="#242D35"/>
<path d="M71.7001 86.3738L71.5065 87.8852L76.312 91.6569L79.8118 87.2297L71.7001 86.3738Z" fill="white"/>
<path d="M76.312 91.9587C76.2319 91.9587 76.1538 91.9326 76.0925 91.8847L71.287 88.1129C71.246 88.0808 71.2143 88.0401 71.1947 87.9944C71.1751 87.9487 71.1681 87.8994 71.1744 87.8507L71.3679 86.3394C71.3782 86.2598 71.423 86.1872 71.4925 86.1374C71.5619 86.0877 71.6498 86.065 71.7389 86.0743L79.8504 86.9303C79.9081 86.9363 79.9631 86.9558 80.0099 86.9869C80.0568 87.018 80.0938 87.0596 80.1173 87.1076C80.1409 87.1555 80.1502 87.2082 80.1443 87.2604C80.1384 87.3126 80.1175 87.3625 80.0837 87.4051L76.584 91.8323C76.5531 91.8715 76.5122 91.9034 76.4649 91.9254C76.4175 91.9474 76.3651 91.9589 76.3118 91.9589L76.312 91.9587ZM71.8588 87.762L76.2534 91.2114L79.2108 87.4703L71.9937 86.7087L71.8586 87.7619L71.8588 87.762Z" fill="#242D35"/>
<path d="M80.6851 84.7212L79.8118 87.2298L84.718 87.9972L83.3114 85.5771L80.6851 84.7212Z" fill="white"/>
<path d="M84.7178 88.2987C84.6989 88.2987 84.6797 88.2972 84.6606 88.2944L79.7544 87.527C79.7075 87.5196 79.6628 87.5033 79.6234 87.4791C79.584 87.4549 79.5509 87.4234 79.5261 87.3866C79.5013 87.3499 79.4855 87.3088 79.4797 87.2662C79.4739 87.2235 79.4783 87.1802 79.4926 87.1392L80.3661 84.6304C80.3933 84.5519 80.455 84.487 80.5368 84.4505C80.5771 84.4323 80.6212 84.4217 80.6662 84.4194C80.7113 84.4171 80.7564 84.4231 80.7987 84.4371L83.4251 85.2932C83.5036 85.3188 83.5687 85.3701 83.6076 85.4368L85.014 87.8569C85.0407 87.9029 85.0538 87.9543 85.0521 88.0062C85.0503 88.058 85.0337 88.1086 85.004 88.153C84.9742 88.1974 84.9322 88.2342 84.8821 88.2597C84.832 88.2852 84.7755 88.2986 84.718 88.2986L84.7178 88.2987ZM80.2451 86.9913L84.1068 87.5953L83.0757 85.8209L80.8996 85.1116L80.2451 86.9913ZM69.2798 78.8968C70.3037 78.2269 69.7775 76.7161 68.4205 76.4008C66.9813 76.0664 66.0781 74.5954 67.448 73.3088C68.5165 72.3054 70.3699 73.1515 71.1249 74.9766C72.0226 77.1472 72.71 76.4053 72.3788 75.1815C71.7657 72.9154 70.3577 71.5433 72.2453 70.4362C73.9897 69.413 78.8239 69.3683 78.6561 65.8319C78.5252 63.0772 76.3011 62.3296 73.6845 62.3296C71.0679 62.3296 64.0029 64.6513 64.7007 70.2788C60.6885 75.5914 67.5355 80.0383 69.2798 78.897V78.8968Z" fill="#242D35"/>
<path d="M68.5582 79.3795C67.6013 79.3795 66.3367 78.8266 65.2382 77.8639C63.317 76.1801 62.0896 73.2907 64.3557 70.2012C64.1522 68.3124 64.7639 66.6339 66.175 65.2102C68.3505 63.0152 71.876 62.0278 73.6843 62.0278C77.0855 62.0278 78.8707 63.3034 78.9899 65.819C79.1227 68.6123 76.3467 69.4191 74.3199 70.0082C73.5741 70.2251 72.8697 70.4296 72.4273 70.6892C71.3134 71.3427 71.5253 72.006 72.1104 73.4442C72.3096 73.9342 72.5357 74.4896 72.7037 75.1101C72.9177 75.901 72.76 76.5159 72.3111 76.6406C71.7937 76.7833 71.3044 76.2741 70.8114 75.0825C70.4034 74.0955 69.6186 73.3604 68.8124 73.2098C68.5099 73.1532 68.0694 73.1609 67.6891 73.5183C67.1842 73.9924 67.0009 74.5079 67.1585 75.0089C67.3208 75.5251 67.8489 75.9568 68.5038 76.1092C69.3304 76.3012 69.9639 76.8969 70.1173 77.6264C70.2442 78.2294 70.0043 78.7958 69.4757 79.1416C69.2291 79.3028 68.915 79.3799 68.5581 79.3799L68.5582 79.3795ZM73.6843 62.6312C72.0485 62.6312 68.689 63.5787 66.6734 65.6127C65.3672 66.9305 64.8152 68.4892 65.0329 70.2453C65.0419 70.3171 65.022 70.3892 64.9769 70.4488C62.3014 73.9914 64.857 76.6889 65.7041 77.4312C67.0256 78.5893 68.546 79.0051 69.0835 78.6528C69.4015 78.4447 69.5391 78.1116 69.4607 77.7387C69.3552 77.2377 68.9142 76.8274 68.3371 76.6931C67.4429 76.4852 66.7449 75.903 66.5155 75.1734C66.2925 74.4646 66.5381 73.7283 67.2071 73.1C67.6691 72.6665 68.2871 72.4952 68.9483 72.6188C69.9899 72.8134 70.944 73.6766 71.4383 74.8714C71.7493 75.6236 71.9862 75.9051 72.1022 76.0067C72.1363 75.8808 72.1548 75.6252 72.0542 75.2532C71.8954 74.6655 71.6762 74.1271 71.483 73.6521C70.9315 72.297 70.4555 71.1266 72.0634 70.1834C72.5806 69.8801 73.3261 69.6635 74.1153 69.434C76.1391 68.8458 78.4331 68.1791 78.3222 65.8451C78.2181 63.6526 76.7444 62.6314 73.6846 62.6314L73.6843 62.6312Z" fill="#242D35"/>
<path d="M73.183 121.062C74.9383 121.003 79.3371 120.142 80.7931 119.763C82.4939 119.321 83.9003 120.117 81.48 120.885C79.2795 121.583 78.2418 121.918 78.5362 122.42C78.8306 122.921 83.0568 122.401 84.0638 122.243C85.4375 122.026 86.2225 122.616 85.274 123.276C86.5061 123.6 86.1789 124.427 84.5545 124.958C81.8406 125.845 78.1111 125.637 77.9802 126.286C77.8493 126.935 80.2862 127.388 81.4472 127.575C82.919 127.811 82.6935 128.892 81.251 128.814C77.4242 128.608 73.303 126.345 71.4713 127.201C71.5694 124.958 72.0818 122.036 73.183 121.062V121.062Z" fill="url(#paint14_linear_2021_7794)"/>
<path d="M81.3961 129.12C81.3427 129.12 81.2877 129.119 81.2311 129.116C79.4911 129.022 77.6926 128.513 76.106 128.064C74.2624 127.543 72.5204 127.05 71.6251 127.469C71.5731 127.493 71.515 127.505 71.4565 127.503C71.398 127.5 71.3413 127.484 71.2919 127.456C71.2425 127.427 71.2022 127.388 71.1751 127.341C71.148 127.294 71.1349 127.242 71.1372 127.189C71.1732 126.366 71.4298 122.19 72.9487 120.846C73.0082 120.794 73.0872 120.763 73.1704 120.76C74.8549 120.704 79.1787 119.869 80.7003 119.473C81.8269 119.18 82.8953 119.369 83.0812 119.894C83.1977 120.224 83.0339 120.712 81.5906 121.17C80.2872 121.583 78.9403 122.01 78.8251 122.252C79.3254 122.465 82.2679 122.219 84.0062 121.945C84.9709 121.794 85.7396 121.992 85.9639 122.452C86.0231 122.574 86.1003 122.845 85.8529 123.17C86.2665 123.393 86.3489 123.675 86.3549 123.849C86.3735 124.377 85.759 124.885 84.6683 125.241C83.2987 125.689 81.6943 125.864 80.4052 126.004C79.576 126.094 78.5536 126.205 78.3199 126.356C78.3858 126.441 78.8239 126.848 81.5056 127.278C82.5243 127.441 82.8267 127.947 82.7766 128.331C82.7251 128.722 82.2719 129.12 81.3961 129.12V129.12ZM72.4982 126.708C73.5456 126.708 74.8562 127.078 76.3059 127.489C77.8558 127.927 79.6126 128.424 81.2707 128.513C81.8376 128.543 82.0987 128.363 82.1124 128.26C82.1264 128.152 81.9061 127.955 81.3884 127.872C78.2955 127.376 77.9018 126.865 77.7724 126.697C77.6609 126.552 77.6188 126.391 77.6509 126.232C77.7615 125.683 78.672 125.584 80.3251 125.405C81.5805 125.268 83.1427 125.099 84.4401 124.674C85.3581 124.374 85.6916 124.02 85.6863 123.868C85.6832 123.783 85.5256 123.656 85.1799 123.565C85.1206 123.55 85.0673 123.519 85.0258 123.478C84.9843 123.437 84.9563 123.386 84.9449 123.331C84.9335 123.277 84.9391 123.22 84.9611 123.168C84.9831 123.116 85.0206 123.07 85.0695 123.036C85.3136 122.867 85.3721 122.737 85.3517 122.696C85.2982 122.586 84.8693 122.422 84.121 122.54C83.5782 122.625 82.2669 122.793 81.059 122.88C78.7283 123.046 78.3822 122.802 78.2406 122.561C78.1136 122.344 78.1475 122.159 78.1984 122.042C78.4095 121.555 79.2698 121.266 81.369 120.6C82.1851 120.342 82.3862 120.132 82.4305 120.069C82.2966 119.963 81.6881 119.844 80.8858 120.053C79.3774 120.446 75.1496 121.262 73.3329 121.358C72.4738 122.236 71.9723 124.61 71.8298 126.769C72.0383 126.727 72.2617 126.708 72.4984 126.708L72.4982 126.708Z" fill="#242D35"/>
<path d="M68.9526 120.492C70.7188 120.965 73.1828 121.062 73.1828 121.062L71.5416 129.533L65.1803 128.481L68.9526 120.492Z" fill="white"/>
<path d="M71.5418 129.834C71.5217 129.834 71.5017 129.833 71.4816 129.829L65.1201 128.778C65.0708 128.77 65.024 128.752 64.9834 128.725C64.9428 128.699 64.9094 128.664 64.8857 128.624C64.8619 128.584 64.8484 128.54 64.8462 128.495C64.844 128.45 64.8531 128.404 64.8729 128.363L68.6452 120.374C68.6773 120.306 68.7361 120.251 68.8103 120.219C68.8846 120.188 68.9691 120.182 69.0477 120.203C70.7531 120.659 73.1733 120.759 73.1975 120.761C73.245 120.762 73.2915 120.773 73.3339 120.793C73.3762 120.812 73.4136 120.84 73.4433 120.873C73.4731 120.907 73.4946 120.945 73.5065 120.987C73.5183 121.028 73.5203 121.072 73.5121 121.114L71.8711 129.585C71.8558 129.664 71.8059 129.734 71.7329 129.78C71.6768 129.815 71.6101 129.834 71.5418 129.834V129.834ZM65.6519 128.252L71.2705 129.181L72.7889 121.343C72.0731 121.3 70.4824 121.172 69.1454 120.854L65.6519 128.252Z" fill="#242D35"/>
<path d="M67.3787 119.949C67.8752 120.154 68.4018 120.336 68.9534 120.492C68.9534 120.492 67.5141 127.517 66.598 131.235C64.7223 131.235 60.6432 130.225 56.6712 128.06C51.6375 125.32 46.7761 120.729 46.7761 113.999C46.7761 101.958 59.4011 93.6056 64.6571 90.9038L65.2873 92.0699L72.1582 104.791C70.7422 105.171 69.47 105.659 68.3466 106.218C64.2241 108.273 62.0843 111.331 62.0843 113.881C62.0843 116.239 64.1054 118.596 67.3787 119.947V119.949Z" fill="url(#paint15_linear_2021_7794)"/>
<path d="M65.2873 92.0699C64.8125 92.272 64.3261 92.4546 63.8713 92.6869C61.337 93.9857 60.0548 96.7086 57.6057 98.1326C56.7798 98.6123 55.8236 98.9427 55.1566 99.5928C54.5882 100.143 54.2873 100.869 53.8727 101.522C53.0836 102.761 51.8816 103.741 50.9889 104.921C49.6381 106.702 49.0497 108.852 48.4846 110.949C48.07 112.494 47.6521 114.102 48.0199 115.655C48.3843 117.194 49.486 118.529 49.8304 120.071C49.9307 120.517 49.9792 121.003 50.2968 121.356C50.5509 121.637 50.9337 121.788 51.2881 121.955C53.8911 123.183 55.404 125.631 56.6712 128.06C51.6375 125.32 46.7761 120.729 46.7761 113.999C46.7761 101.958 59.4011 93.6056 64.6571 90.9038L65.2873 92.0699Z" fill="white"/>
<path d="M66.598 131.537C64.464 131.537 59.424 130.247 54.9 127.38C51.0412 124.934 46.4416 120.628 46.4416 113.999C46.4416 108.705 48.8143 103.575 53.4938 98.7507C57.7824 94.3297 62.6135 91.6073 64.4914 90.6417C64.5682 90.6052 64.6578 90.5971 64.7411 90.6191C64.8244 90.641 64.895 90.6914 64.938 90.7594C64.981 90.8275 64.993 90.908 64.9714 90.9839C64.9499 91.0598 64.8965 91.1251 64.8226 91.1662C63.0096 92.098 47.1105 100.656 47.1105 113.999C47.1105 120.369 51.5555 124.523 55.2845 126.886C59.5078 129.563 64.152 130.828 66.3312 130.927C67.1356 127.619 68.3082 121.972 68.5711 120.697C68.1184 120.56 67.6739 120.402 67.2396 120.223C67.2294 120.219 67.2194 120.214 67.2098 120.209C63.8411 118.809 61.7499 116.386 61.7499 113.881C61.7499 111.014 64.2758 107.902 68.185 105.954C69.3721 105.363 70.6767 104.874 72.0627 104.502C72.1049 104.49 72.1492 104.486 72.1931 104.49C72.237 104.494 72.2796 104.506 72.3185 104.525C72.3574 104.544 72.3917 104.569 72.4196 104.6C72.4474 104.631 72.4683 104.666 72.4808 104.705C72.4934 104.743 72.4975 104.783 72.4928 104.822C72.4882 104.862 72.4749 104.9 72.4538 104.935C72.4326 104.97 72.404 105.001 72.3696 105.026C72.3352 105.051 72.2957 105.069 72.2533 105.08C70.9131 105.44 69.6531 105.912 68.5081 106.482C64.8089 108.326 62.4184 111.23 62.4184 113.881C62.4184 116.155 64.3724 118.374 67.5176 119.673C67.5276 119.677 67.5373 119.682 67.5467 119.687C68.0365 119.887 68.5395 120.06 69.0529 120.204C69.131 120.226 69.1974 120.273 69.2396 120.336C69.2819 120.399 69.297 120.474 69.2821 120.547C69.2677 120.617 67.831 127.62 66.9243 131.301C66.9078 131.368 66.8665 131.428 66.8071 131.471C66.7478 131.514 66.674 131.537 66.598 131.537Z" fill="#242D35"/>
<path d="M67.3787 119.947V119.949C63.96 119.273 61.9338 117.242 61.0378 116.754C59.9912 116.183 60.1216 118.446 59.249 118.446C58.3763 118.446 57.9083 117.654 58.2459 115.888C58.6823 113.605 62.3885 108.686 68.3466 106.218C64.2241 108.273 62.0843 111.331 62.0843 113.881C62.0843 116.239 64.1054 118.596 67.3787 119.947Z" fill="#242D35"/>
<path d="M67.3787 120.25C67.3548 120.25 67.3309 120.248 67.3071 120.244C64.6036 119.709 62.7459 118.352 61.6359 117.541C61.323 117.312 61.0528 117.114 60.8647 117.012C60.7783 116.965 60.73 116.96 60.7161 116.965C60.5902 117.004 60.4289 117.398 60.3326 117.634C60.1293 118.13 59.8764 118.748 59.2488 118.748C58.8387 118.748 58.4904 118.607 58.2416 118.341C57.7989 117.866 57.6894 117.024 57.9164 115.837C58.3941 113.338 62.3337 108.377 68.2072 105.944C68.2858 105.912 68.3752 105.908 68.4566 105.934C68.5381 105.96 68.6053 106.013 68.6442 106.083C68.6831 106.152 68.6907 106.233 68.6654 106.307C68.64 106.382 68.5837 106.444 68.5083 106.482C64.809 108.326 62.4186 111.23 62.4186 113.881C62.4186 116.155 64.3725 118.374 67.5179 119.673C67.5762 119.697 67.6256 119.736 67.6602 119.784C67.6948 119.833 67.7132 119.889 67.7132 119.947V119.949C67.7131 120.029 67.6778 120.105 67.6152 120.162C67.5525 120.219 67.4675 120.25 67.3788 120.25H67.3787ZM60.728 116.359C60.883 116.359 61.0444 116.405 61.2106 116.495C61.438 116.619 61.7111 116.819 62.057 117.072C62.6197 117.483 63.383 118.04 64.3543 118.549C62.7013 117.223 61.7499 115.571 61.7499 113.881C61.7499 112.315 62.5037 110.676 63.8252 109.193C60.6223 111.663 58.8411 114.55 58.5754 115.939C58.324 117.255 58.579 117.765 58.7532 117.952C58.8744 118.082 59.0363 118.145 59.249 118.145C59.4108 118.145 59.5882 117.711 59.7055 117.425C59.8858 116.984 60.0722 116.529 60.4953 116.395C60.5701 116.372 60.6488 116.36 60.7281 116.36L60.728 116.359ZM78.6002 124.593C78.5285 124.593 78.463 124.592 78.4036 124.59C78.315 124.587 78.2313 124.553 78.171 124.494C78.1107 124.436 78.0786 124.358 78.0818 124.278C78.0832 124.238 78.0933 124.199 78.1115 124.163C78.1297 124.127 78.1557 124.094 78.1879 124.067C78.2202 124.04 78.258 124.019 78.2993 124.006C78.3406 123.992 78.3844 123.986 78.4284 123.987C79.5919 124.031 83.6101 123.637 85.1334 123.002C85.1733 122.985 85.2164 122.976 85.2602 122.974C85.3041 122.972 85.3479 122.979 85.3891 122.992C85.4303 123.006 85.4681 123.027 85.5004 123.054C85.5326 123.081 85.5587 123.113 85.5771 123.149C85.5955 123.185 85.6059 123.224 85.6077 123.264C85.6094 123.303 85.6025 123.343 85.5874 123.38C85.5722 123.417 85.5491 123.451 85.5193 123.48C85.4895 123.509 85.4536 123.533 85.4138 123.549C83.856 124.199 80.0366 124.593 78.5999 124.593H78.6002ZM95.6789 116.631C95.6132 116.631 95.549 116.614 95.4943 116.581C95.4395 116.548 95.3966 116.502 95.371 116.447C95.1256 115.925 95.1538 114.763 95.1864 113.418C95.214 112.283 95.2424 111.109 95.0784 110.533C94.8404 109.694 93.5485 108.03 92.5101 106.693C92.0419 106.09 91.5997 105.52 91.2819 105.067C90.7123 104.253 90.4688 102.887 90.2107 101.442C89.9775 100.135 89.7362 98.783 89.2477 97.9381C88.6986 96.9884 87.4867 96.1893 86.3148 95.4163C85.336 94.771 84.4114 94.1613 83.8427 93.4619C83.4027 92.921 83.303 92.3008 83.1977 91.6442C82.9897 90.3496 82.754 88.8819 79.6631 87.5001C79.4976 87.4262 79.4299 87.2452 79.512 87.0958C79.5941 86.9465 79.7945 86.8853 79.96 86.9595C83.3654 88.4819 83.6394 90.1872 83.8595 91.5576C83.9567 92.1626 84.0406 92.6853 84.3818 93.1047C84.8895 93.7291 85.7735 94.312 86.7094 94.9291C87.9434 95.7429 89.2193 96.5844 89.8407 97.659C90.3793 98.5905 90.6293 99.991 90.8708 101.346C91.1069 102.668 91.3508 104.035 91.8475 104.744C92.1566 105.186 92.5944 105.75 93.0578 106.347C94.1827 107.796 95.4579 109.438 95.7262 110.383C95.9128 111.04 95.8834 112.255 95.855 113.431C95.828 114.546 95.7975 115.809 95.9865 116.211C96.0082 116.257 96.0169 116.307 96.0118 116.357C96.0068 116.407 95.9883 116.454 95.9578 116.496C95.9273 116.538 95.8859 116.572 95.8372 116.595C95.7886 116.619 95.7342 116.631 95.6789 116.631V116.631ZM68.1896 75.4209C68.1399 75.4209 68.0908 75.411 68.0459 75.3917C68.001 75.3725 67.9614 75.3445 67.93 75.3097C67.6141 74.9593 67.5748 74.5063 67.8275 74.1275C68.0679 73.7673 68.5186 73.5772 68.9474 73.6534C68.9905 73.6611 69.0315 73.6764 69.068 73.6983C69.1045 73.7203 69.1359 73.7486 69.1603 73.7815C69.1847 73.8145 69.2017 73.8514 69.2103 73.8903C69.2189 73.9291 69.2189 73.9691 69.2104 74.008C69.2019 74.0469 69.1849 74.0838 69.1605 74.1168C69.1362 74.1498 69.1048 74.1781 69.0683 74.2001C69.0319 74.2221 68.9909 74.2375 68.9478 74.2452C68.9048 74.253 68.8604 74.253 68.8174 74.2453C68.6395 74.212 68.4797 74.3194 68.4003 74.4385C68.35 74.514 68.254 74.7128 68.4488 74.9287C68.4885 74.9729 68.5135 75.0265 68.521 75.083C68.5285 75.1396 68.518 75.1969 68.4909 75.2484C68.4638 75.2999 68.4211 75.3434 68.3678 75.3738C68.3144 75.4043 68.2526 75.4206 68.1895 75.4207L68.1896 75.4209Z" fill="#242D35"/>
</g>
<g clip-path="url(#clip6_2021_7794)">
<path d="M52.8138 54.7837H77.7547C79.1869 51.479 72.6627 49.1185 69.4802 52.3287C69.2681 47.702 64.0699 45.5776 60.5161 45.5776C55.8484 45.5776 50.8095 49.26 52.8138 54.7837Z" fill="white"/>
</g>
<defs>
<linearGradient id="paint0_linear_2021_7794" x1="225.005" y1="14.9409" x2="125.849" y2="175.673" gradientUnits="userSpaceOnUse">
<stop stop-color="#2FDAFF"/>
<stop offset="1" stop-color="#0E33F3"/>
</linearGradient>
<linearGradient id="paint1_linear_2021_7794" x1="222.236" y1="30.7871" x2="56.1323" y2="231.159" gradientUnits="userSpaceOnUse">
<stop stop-color="#2FDAFF"/>
<stop offset="1" stop-color="#0E33F3"/>
</linearGradient>
<linearGradient id="paint2_linear_2021_7794" x1="189.875" y1="28.6746" x2="160.614" y2="84.5785" gradientUnits="userSpaceOnUse">
<stop stop-color="#2FDAFF"/>
<stop offset="1" stop-color="#0E33F3"/>
</linearGradient>
<linearGradient id="paint3_linear_2021_7794" x1="69.1489" y1="194.357" x2="61.4681" y2="206.862" gradientUnits="userSpaceOnUse">
<stop stop-color="#2FDAFF"/>
<stop offset="1" stop-color="#0E33F3"/>
</linearGradient>
<linearGradient id="paint4_linear_2021_7794" x1="139.013" y1="159.963" x2="133.163" y2="170.225" gradientUnits="userSpaceOnUse">
<stop stop-color="#2FDAFF"/>
<stop offset="1" stop-color="#0E33F3"/>
</linearGradient>
<linearGradient id="paint5_linear_2021_7794" x1="78.7462" y1="118.763" x2="75.9087" y2="123.753" gradientUnits="userSpaceOnUse">
<stop stop-color="#2FDAFF"/>
<stop offset="1" stop-color="#0E33F3"/>
</linearGradient>
<linearGradient id="paint6_linear_2021_7794" x1="149.601" y1="78.2993" x2="139.791" y2="92.2781" gradientUnits="userSpaceOnUse">
<stop stop-color="#2FDAFF"/>
<stop offset="1" stop-color="#0E33F3"/>
</linearGradient>
<linearGradient id="paint7_linear_2021_7794" x1="81.471" y1="66.4561" x2="61.9535" y2="82.3214" gradientUnits="userSpaceOnUse">
<stop stop-color="#2FDAFF"/>
<stop offset="1" stop-color="#0E33F3"/>
</linearGradient>
<linearGradient id="paint8_linear_2021_7794" x1="145.067" y1="115.18" x2="68.1082" y2="205.545" gradientUnits="userSpaceOnUse">
<stop stop-color="#2FDAFF"/>
<stop offset="1" stop-color="#0E33F3"/>
</linearGradient>
<linearGradient id="paint9_linear_2021_7794" x1="107.909" y1="113.464" x2="102.756" y2="130.503" gradientUnits="userSpaceOnUse">
<stop stop-color="#2FDAFF"/>
<stop offset="1" stop-color="#0E33F3"/>
</linearGradient>
<linearGradient id="paint10_linear_2021_7794" x1="92.3712" y1="87.6138" x2="56.1955" y2="120.134" gradientUnits="userSpaceOnUse">
<stop stop-color="#2FDAFF"/>
<stop offset="1" stop-color="#0E33F3"/>
</linearGradient>
<linearGradient id="paint11_linear_2021_7794" x1="84.2064" y1="87.6138" x2="72.1413" y2="102.069" gradientUnits="userSpaceOnUse">
<stop stop-color="#2FDAFF"/>
<stop offset="1" stop-color="#0E33F3"/>
</linearGradient>
<linearGradient id="paint12_linear_2021_7794" x1="137.508" y1="85.2002" x2="109.472" y2="135.01" gradientUnits="userSpaceOnUse">
<stop stop-color="#2FDAFF"/>
<stop offset="1" stop-color="#0E33F3"/>
</linearGradient>
<linearGradient id="paint13_linear_2021_7794" x1="94.0948" y1="85.8428" x2="84.1029" y2="98.4511" gradientUnits="userSpaceOnUse">
<stop stop-color="#2FDAFF"/>
<stop offset="1" stop-color="#0E33F3"/>
</linearGradient>
<linearGradient id="paint14_linear_2021_7794" x1="86.0212" y1="119.636" x2="78.3703" y2="132.821" gradientUnits="userSpaceOnUse">
<stop stop-color="#2FDAFF"/>
<stop offset="1" stop-color="#0E33F3"/>
</linearGradient>
<linearGradient id="paint15_linear_2021_7794" x1="72.1582" y1="90.9038" x2="36.075" y2="115.6" gradientUnits="userSpaceOnUse">
<stop stop-color="#2FDAFF"/>
<stop offset="1" stop-color="#0E33F3"/>
</linearGradient>
<clipPath id="clip0_2021_7794">
<rect width="172.309" height="115.604" fill="white" transform="translate(52.6964 14.9409)"/>
</clipPath>
<clipPath id="clip1_2021_7794">
<rect width="60.0572" height="17.2048" fill="white" transform="translate(167.959 77.4216)"/>
</clipPath>
<clipPath id="clip2_2021_7794">
<rect width="216.139" height="176.726" fill="white" transform="translate(16.2271 30.4856)"/>
</clipPath>
<clipPath id="clip3_2021_7794">
<rect width="62.2319" height="17.6576" fill="white" transform="translate(92.1769 24.147)"/>
</clipPath>
<clipPath id="clip4_2021_7794">
<rect width="67.4179" height="88.7405" fill="white" transform="translate(122.791 28.3728)"/>
</clipPath>
<clipPath id="clip5_2021_7794">
<rect width="111.415" height="145.184" fill="white" transform="translate(41.1534 62.0278)"/>
</clipPath>
<clipPath id="clip6_2021_7794">
<rect width="25.5954" height="9.20607" fill="white" transform="translate(52.3618 45.5776)"/>
</clipPath>
</defs>
</svg>
